<?xml version="1.0" encoding="utf-8"?>
<!-- Generator: Adobe Illustrator 16.0.0, SVG Export Plug-In . SVG Version: 6.00 Build 0)  -->
<!DOCTYPE svg PUBLIC "-//W3C//DTD SVG 1.1//EN" "http://www.w3.org/Graphics/SVG/1.1/DTD/svg11.dtd">
<svg version="1.1" id="Layer_1" xmlns="http://www.w3.org/2000/svg" xmlns:xlink="http://www.w3.org/1999/xlink" x="0px" y="0px"
	 width="717.795px" height="483.775px" viewBox="0 0 717.795 483.775" enable-background="new 0 0 717.795 483.775"
	 xml:space="preserve">
<rect x="-8.02" y="-16.652" fill="#F3D800" width="732.833" height="522.692"/>
<path fill="none" stroke="#FFFFFF" stroke-width="6" stroke-linejoin="round" stroke-miterlimit="10" d="M578.617,183.718"/>
<line fill="none" x1="282.52" y1="258.363" x2="282.52" y2="249.498"/>
<g>
	<path fill="#FFFFFF" d="M-348.226,255.349v18.465c0,8.797-2.31,15.17-6.928,19.125c-4.619,3.961-10.661,5.937-18.139,5.937
		c-4.404,0-9.018-0.933-13.85-2.808c-4.833-1.875-9.678-4.354-14.509-7.444c12.529-11.472,22.091-24.312,28.685-38.539
		c6.591-14.22,9.896-28.279,9.896-42.168c0-5.069,2.089-8.764,6.267-11.083c4.173-2.315,11.208-3.474,21.101-3.474l0.003-18.799
		h-87.709v18.795c9.893,0,16.983,1.155,21.268,3.463c4.288,2.307,6.432,5.992,6.432,11.047c0,12.528-2.638,24.183-7.913,34.952
		c-5.279,10.774-12.093,20.112-20.445,28.026c-11.206-11.43-21.924-24.948-32.148-40.559
		c-10.217-15.604-19.067-31.104-26.538-46.494c7.032-3.515,13.85-7.254,20.444-11.212c6.592-3.955,12.473-8.407,17.643-13.352
		c5.16-4.946,9.281-10.66,12.358-17.148c3.078-6.48,4.615-14.012,4.615-22.586c0-15.828-4.829-27.973-14.507-36.437
		c-9.677-8.46-22.096-12.695-37.263-12.695c-10.114,0-19.182,1.483-27.203,4.452s-14.841,7.095-20.442,12.367
		c-5.604,5.274-9.891,11.538-12.859,18.795c-2.967,7.253-4.452,15.169-4.452,23.741c0,13.849,3.845,29.348,11.542,46.495
		c-7.919,3.74-15.39,7.914-22.424,12.53c-7.035,4.616-13.189,9.947-18.464,15.992c-5.276,6.048-9.456,13.023-12.531,20.939
		c-3.082,7.914-4.617,16.929-4.617,27.037c0,13.19,2.521,24.399,7.583,33.635c5.053,9.232,11.924,16.767,20.608,22.589
		c8.684,5.823,18.739,10.11,30.173,12.858c11.428,2.744,23.516,4.123,36.271,4.123c12.089,0,23.573-1.486,34.46-4.453
		c10.883-2.967,21.267-7.09,31.157-12.365c8.354,5.275,16.702,9.398,25.062,12.365c8.351,2.967,16.816,4.453,25.394,4.453
		c17.145,0,29.894-4.57,38.242-13.688c8.357-9.119,12.533-21.928,12.533-38.414v-18.465h-18.794v0.002H-348.226z M-500.243,112.242
		c0.877-3.512,2.252-6.647,4.125-9.397c1.861-2.747,4.283-4.947,7.254-6.595c2.968-1.647,6.533-2.473,10.715-2.473
		c7.034,0,12.42,1.762,16.158,5.275c3.733,3.519,5.605,9.456,5.605,17.806c0,5.497-0.934,10.335-2.805,14.509
		c-1.869,4.177-4.445,7.969-7.748,11.375c-3.295,3.41-7.147,6.43-11.542,9.067c-4.396,2.638-9.122,5.168-14.18,7.584
		c-2.857-7.252-5.061-13.899-6.597-19.947c-1.538-6.043-2.306-11.591-2.306-16.651
		C-501.561,119.282-501.124,115.762-500.243,112.242z M-476.175,297.233c-6.812,1.537-13.521,2.305-20.113,2.305
		c-7.253,0-13.959-1.154-20.11-3.463c-6.157-2.311-11.493-5.605-15.996-9.893c-4.504-4.289-8.022-9.455-10.55-15.503
		c-2.527-6.04-3.791-12.801-3.791-20.276c0-10.552,2.64-19.232,7.915-26.048c5.275-6.813,11.872-12.862,19.786-18.14
		c7.471,15.171,16.649,30.121,27.528,44.854c10.88,14.725,22.587,27.807,35.116,39.233
		C-462.769,293.39-469.358,295.698-476.175,297.233z"/>
	<path fill="#FFFFFF" d="M-591.159,368.479l11.424,5.877l6.559-5.732l14.83,7.633l-1.008,8.58l11.479,5.906l5.696-49.439
		l-11.755-6.047L-591.159,368.479z M-557.021,366.519l-8.951-4.604l11.229-10.896l0.108,0.058L-557.021,366.519z"/>
	<polygon fill="#FFFFFF" points="-533.961,394.29 -522.164,396.995 -518.077,379.179 -505.135,382.144 -502.844,372.151 
		-515.787,369.183 -514.048,361.599 -499.783,364.87 -497.49,354.876 -523.558,348.899 	"/>
	<polygon fill="#FFFFFF" points="-457.185,355.542 -489.296,356.069 -489.127,366.317 -479.124,366.153 -478.531,402.464 
		-466.427,402.267 -467.021,365.958 -457.017,365.792 	"/>
	<polygon fill="#FFFFFF" points="-426.854,386.171 -428.856,378.396 -415.637,374.991 -418.189,365.062 -431.412,368.466 
		-433.35,360.929 -419.414,357.339 -421.967,347.409 -447.631,354.013 -436.024,399.118 -410.362,392.511 -412.918,382.583 	"/>
	<path fill="#FFFFFF" d="M-375.621,340.091c-4.814-8.701-13.044-9.154-21.095-4.701l-15.831,8.769l22.555,40.735l10.59-5.858
		l-8.676-15.672l0.107-0.062l18.669,10.137l13.188-7.293l-22.048-9.61C-372.953,352.306-372.511,345.71-375.621,340.091z
		 M-390.819,355.985l-1.027,0.565l-5.625-10.155l1.031-0.566c3.455-1.912,7.704-3.42,10.153,1.012
		C-383.83,351.271-387.361,354.071-390.819,355.985z"/>
	<path fill="#FFFFFF" d="M-570.543,67.575c6.825-5.102,11.58-12.666,5.735-20.478c-3.881-5.193-8.855-7.103-14.713-3.801
		l-0.075-0.098c1.87-3.79,0.924-7.321-1.589-10.685c-5.324-7.122-11.699-6.365-18.324-1.409l-13.847,10.354l27.879,37.288
		L-570.543,67.575z M-591.633,48.036l-1.087,0.812l-5.4-7.22l0.693-0.519c2.622-1.959,5.786-4.018,8.338-0.606
		C-586.723,43.67-589.061,46.112-591.633,48.036z M-586.333,55.33c3.164-2.366,7.629-6.399,10.995-1.899
		c3.069,4.105-1.89,7.581-4.758,9.726l-1.235,0.925l-5.988-8.013L-586.333,55.33z"/>
	<polygon fill="#FFFFFF" points="-524.542,43.79 -528.85,34.482 -541.907,40.529 -545.284,33.244 -532.894,27.508 -537.201,18.204 
		-549.587,23.936 -552.855,16.874 -539.795,10.828 -544.104,1.523 -568.15,12.655 -548.589,54.917 	"/>
	<polygon fill="#FFFFFF" points="-499.905,38.561 -502.775,20.51 -489.662,18.426 -491.273,8.302 -504.386,10.386 -505.605,2.701 
		-491.151,0.404 -492.761,-9.72 -519.165,-5.522 -511.858,40.459 	"/>
	<path fill="#FFFFFF" d="M-454.041,39.353c14.822,1.942,26.92-7.184,28.879-22.123c1.83-13.961-9.133-25.364-22.418-27.107
		c-13.284-1.744-26.817,6.447-28.649,20.409C-478.19,25.472-468.856,37.41-454.041,39.353z M-463.744,12.23
		c0.834-6.369,7.475-11.414,14.641-10.475c7.164,0.94,12.278,7.527,11.441,13.896c-1.045,7.96-7.687,13.007-14.852,12.066
		C-459.679,26.78-464.792,20.19-463.744,12.23z"/>
	<path fill="#FFFFFF" d="M-403.461,33.922l0.11,0.055l2.576,21.087l13.595,6.504l-4.966-23.534
		c6.464,1.793,12.098-1.674,14.864-7.469c4.294-8.97-0.104-15.937-8.411-19.909l-16.323-7.811l-20.101,42.009l10.923,5.225
		L-403.461,33.922z M-395.091,16.43l1.058,0.507c3.564,1.707,7.258,4.294,5.069,8.862c-2.186,4.569-6.516,3.318-10.082,1.612
		l-1.06-0.507L-395.091,16.43z"/>
	<polygon fill="#FFFFFF" points="-360.589,83.117 -353.983,75.278 -364.99,66.008 -359.815,59.868 -349.377,68.659 -342.776,60.818 
		-353.213,52.028 -348.2,46.076 -337.195,55.344 -330.592,47.503 -350.854,30.437 -380.851,66.05 	"/>
	<path fill="#FFFFFF" d="M-607.529,194.138c0-65.047,47.223-119.269,109.186-130.192c3.56-0.704,7.26-1.196,11.097-1.466
		c3.928-0.353,7.9-0.543,11.919-0.543c63.714,0,117.042,45.306,129.467,105.392h9.17c-12.562-65.081-69.943-114.392-138.637-114.392
		c-77.858,0-141.201,63.343-141.201,141.201c0,24.667,6.364,47.87,17.526,68.068c-0.264-2.926-0.404-5.936-0.404-9.039
		c0-4.002,0.234-7.867,0.687-11.59C-604.404,226.845-607.529,210.849-607.529,194.138z"/>
	<path fill="#FFFFFF" d="M-384.644,290.239c0.111,0.045,0.223,0.096,0.334,0.139c3.494,1.355,6.848,2.129,9.994,2.314
		c7.494-7.683,14.129-16.201,19.731-25.416v-18.447h9.433c6.342-15.038,10.145-31.396,10.883-48.536h-0.683
		c-3.323,0-6.062,0.142-8.338,0.362C-345.006,235.875-360.572,267.515-384.644,290.239z"/>
	<path fill="#FFFFFF" d="M-419.969,324.028c-3.475-1.672-6.948-3.529-10.408-5.562c-1.658,0.602-3.335,1.17-5.024,1.705
		c-8.025,3.715-16.378,6.773-24.935,9.105c-10.9,2.971-22.508,4.539-34.521,4.705c6.386,0.887,12.903,1.354,19.529,1.354
		C-455.688,335.339-436.977,331.304-419.969,324.028z"/>
</g>
<g>
	<g>
		<path fill="#FFFFFF" d="M350.206,150.674c-0.549,3.233-7.516,6.416-10.595,6.833c-4.083,6.239-10.938,17.175-19.565,17.214
			c-7.97,0.036-12.376-8.668-13.094-15.208c-1.522-13.888,9.53-42.776,26.044-42.85c5.668-0.024,12.238,3.66,12.91,9.796
			c0.267,2.423-0.08,4.524-1.246,6.63l0.355,2.501c0.974,6.62-0.579,11.96-3.154,17.707c1.736-0.655,5.136-4.144,6.286-4.149
			C348.89,149.146,349.973,150.029,350.206,150.674z M321.132,167.366c4.846-0.022,9.342-6.99,11.501-10.553
			c-3.754-2.003-5.612-6.195-6.018-9.91c-0.841-7.669,2.809-20.854,13.036-19.042c-0.632-2.017-1.556-4.435-4.103-4.424
			c-10.27,0.047-21.086,29.581-20.103,38.542C315.771,164.965,317.845,167.379,321.132,167.366z M330.654,147.773
			c0.249,2.26,1.426,4.759,3.532,5.962c2.508-4.858,5.279-11.817,4.65-17.551c-0.151-1.372-0.98-3.712-2.708-3.704
			C331.118,132.504,330.248,144.059,330.654,147.773z"/>
	</g>
	<g>
		<path fill="#FFFFFF" d="M352.369,165.932c0.739-0.003,1.387-0.087,1.919-0.494c1.912-1.301,6.667-14.894,8.065-17.888
			c0.855-1.943,1.654-2.916,3.954-2.926c1.067-0.005,4.911-0.185,5.089,1.431c0.282,2.584-7.293,13.686-6.543,20.548
			c0.109,0.969,0.918,1.611,1.822,1.608c3.45-0.016,9.226-7.313,10.905-9.985l0.407,3.714c-2.77,3.97-8.858,12.157-14.446,12.182
			c-2.629,0.012-5.203-2.481-6.51-4.655c-2.033,1.705-4.989,3.979-8.029,3.994c-3.697,0.018-5.818-2.074-6.208-5.627
			c-0.405-3.714,5.722-23.532,8.481-23.868c0.721-0.165,1.543-0.169,2.362-0.172c0.578-0.003,4.584-0.183,4.691,0.786
			c0.142,1.291-7.891,17.242-7.59,19.987C350.819,165.292,351.548,165.936,352.369,165.932z"/>
	</g>
	<g>
		<path fill="#FFFFFF" d="M403.537,161.825c-2.534,3.888-9.279,12.078-14.536,12.101c-2.958,0.013-6.264-2.395-6.601-5.463
			c-0.655-5.974,5.998-13.516,5.759-15.697l-0.612-0.32l-0.665-0.078c-1.479,0.007-2.676,0.335-4.181,0.1
			c-1.282,4.045-3.444,8.337-6.211,11.579l-1.003-3.146c1.64-1.542,3.95-7.45,4.359-9.712c-0.973-0.644-1.354-1.852-1.46-2.822
			c-0.46-4.198,2.066-8.895,6.667-8.915c1.07-0.006,1.988,0.879,2.105,1.929c0.105,0.969-0.29,1.859-0.186,2.828
			c0.071,0.646,0.791,1.207,1.449,1.204c1.149-0.006,1.574-1.379,2.723-1.384c1.479-0.007,9.057,0.12,9.252,1.896
			c0.292,2.665-10.279,16.445-9.846,20.402c0.106,0.968,1.09,1.691,1.993,1.687c3.616-0.017,8.832-7.148,10.586-9.902
			L403.537,161.825z"/>
	</g>
</g>
<polygon fill="none" stroke="#FFFFFF" stroke-width="10" stroke-miterlimit="10" points="675.396,202.206 663.954,279.927 
	351.531,399.582 52.841,272.628 41.397,202.206 351.531,87.765 "/>
<g>
	<g>
		<path fill="#FFFFFF" stroke="#FFFFFF" stroke-miterlimit="10" d="M175.442,263.911l0.204-0.033l8.186-51.931l15.82-2.511
			l22.847,47.007l0.203-0.032l6.562-51.674l20.688-3.284l-12.305,80.344l-20.283,3.22l-20.42-42.193l-0.203,0.031l-7.975,46.7
			l-20.182,3.203l-34.954-72.846l20.688-3.283L175.442,263.911z"/>
		<path fill="#FFFFFF" stroke="#FFFFFF" stroke-miterlimit="10" d="M359.595,233.194c0.995,25.035-16.259,43.396-41.091,44.385
			c-24.83,0.985-43.488-15.949-44.483-40.985c-0.929-23.395,18.94-40.626,41.206-41.511
			C337.491,194.199,358.666,209.8,359.595,233.194z M294.958,235.866c0.529,13.34,10.767,22.695,22.772,22.219
			c12.005-0.478,21.467-10.618,20.938-23.956c-0.424-10.671-10.662-20.028-22.666-19.55
			C303.996,215.055,294.532,225.195,294.958,235.866z"/>
		<path fill="#FFFFFF" stroke="#FFFFFF" stroke-miterlimit="10" d="M451.743,277.279l-25.023-1.246l-17.49-30.687l-0.205-0.01
			l-1.48,29.741l-20.101-1.002l3.853-77.326l30.046,1.498c15.281,0.761,26.507,8.621,25.685,25.132
			c-0.531,10.666-6.938,19.599-18.009,21.002L451.743,277.279z M409.669,232.416l1.947,0.096c6.564,0.328,14.009-0.535,14.428-8.944
			c0.418-8.409-6.902-10.008-13.467-10.335l-1.948-0.097L409.669,232.416z"/>
		<path fill="#FFFFFF" stroke="#FFFFFF" stroke-miterlimit="10" d="M532.407,208.772l24.688,3.638l-35.823,31.778l27.274,45.228
			l-25.805-3.804l-20.805-37.008l-0.202-0.028l-4.896,33.22l-18.87-2.935l11.289-76.601l18.871,2.935l-4.657,31.596l0.202,0.028
			L532.407,208.772z"/>
	</g>
	<g>
		<g>
			<polygon fill="#FFFFFF" points="138.313,216.571 162.259,212.77 181.866,256.655 189.464,208.452 207.552,205.581 
				228.768,249.229 234.862,201.247 258.825,197.444 246.021,281.036 223.464,284.617 204.52,245.472 197.12,288.797 
				174.68,292.356 			"/>
			<path fill="#F3D800" d="M256.954,199.324l-12.306,80.347l-20.283,3.219l-20.42-42.194l-0.203,0.03l-7.975,46.701l-20.182,3.203
				l-34.954-72.844l20.688-3.284l21.124,47.279l0.202-0.032l8.186-51.932l15.82-2.511l22.847,47.007l0.203-0.031l6.562-51.675
				L256.954,199.324 M260.695,195.563l-4.231,0.672l-20.688,3.284l-2.317,0.368l-0.296,2.328l-5.284,41.607l-18.412-37.882
				l-1.014-2.085l-2.29,0.364l-15.821,2.511l-2.246,0.356l-0.354,2.247l-6.6,41.868l-16.966-37.974l-0.978-2.19l-2.368,0.375
				l-20.689,3.284l-4.146,0.658l1.816,3.785l34.953,72.845l1.009,2.103l2.302-0.366l20.182-3.203l2.216-0.352l0.377-2.211
				l6.388-37.405l16.311,33.702l1.011,2.092l2.294-0.365l20.283-3.219l2.256-0.359l0.346-2.256l12.306-80.347L260.695,195.563
				L260.695,195.563z"/>
		</g>
		<g>
			<path fill="#FFFFFF" d="M323.453,278.099c-24.908,0-42.999-17.488-43.994-42.527c-0.906-22.813,18.252-42.164,42.707-43.135
				c0.621-0.024,1.245-0.037,1.866-0.037c20.916,0,43.142,14.83,44.128,39.648c1.02,25.637-16.894,44.988-42.592,46.01
				C324.858,278.084,324.151,278.099,323.453,278.099z M323.881,215.04c-0.272,0-0.542,0.005-0.818,0.017
				c-5.34,0.211-10.355,2.466-14.122,6.347c-3.631,3.742-5.608,8.594-5.42,13.314c0.469,11.82,9.211,20.734,20.334,20.734
				c0.27,0,0.541-0.006,0.812-0.017c11.38-0.453,19.917-10.261,19.438-22.33C343.716,223.313,334.454,215.04,323.881,215.04z"/>
			<path fill="#F3D800" d="M324.03,193.962c21.593-0.002,41.66,15.384,42.564,38.146c0.995,25.037-16.259,43.398-41.091,44.384
				c-0.687,0.026-1.373,0.041-2.052,0.041c-23.801,0-41.464-16.683-42.431-41.026c-0.929-23.394,18.94-40.626,41.206-41.511
				C322.829,193.974,323.431,193.962,324.03,193.962 M323.855,257.016c0.29,0,0.583-0.006,0.875-0.017
				c12.005-0.479,21.469-10.617,20.939-23.955c-0.415-10.41-10.167-19.568-21.788-19.568c-0.292,0-0.585,0.005-0.88,0.018
				c-12.005,0.478-21.469,10.617-21.044,21.288C302.475,247.794,312.232,257.016,323.855,257.016 M324.033,190.834v3.128V190.834
				h-0.003c-0.642,0-1.29,0.013-1.928,0.039c-11.691,0.464-23.116,5.27-31.345,13.186c-8.768,8.433-13.336,19.646-12.861,31.574
				c0.498,12.539,5.332,23.824,13.611,31.775c8.23,7.902,19.575,12.254,31.945,12.254c0.719,0,1.452-0.014,2.176-0.042
				c26.604-1.059,45.147-21.091,44.094-47.636c-0.461-11.594-5.653-22.199-14.618-29.862
				C346.589,194.842,335.555,190.834,324.033,190.834L324.033,190.834z M323.855,253.888c-10.267,0-18.336-8.268-18.772-19.231
				c-0.17-4.294,1.645-8.727,4.98-12.163c3.486-3.592,8.125-5.678,13.063-5.874c0.253-0.011,0.504-0.015,0.755-0.015
				c9.759,0,18.303,7.586,18.662,16.563c0.444,11.192-7.434,20.287-17.937,20.704C324.354,253.883,324.104,253.888,323.855,253.888
				L323.855,253.888z"/>
		</g>
		<g>
			<path fill="#FFFFFF" d="M432.787,276.467l-15.451-27.106l-1.308,26.273l-23.226-1.158l4.009-80.45l31.61,1.576
				c8.279,0.412,15.142,2.852,19.845,7.055c5.276,4.715,7.74,11.35,7.322,19.716c-0.563,11.313-7.105,19.708-16.907,22.029
				l23.151,33.514L432.787,276.467z M418.694,229.865c0.68,0.033,1.368,0.054,2.055,0.054c7.164,0,10.476-2.317,10.734-7.514
				c0.16-3.218-0.898-5.367-3.331-6.764c-1.952-1.122-4.7-1.734-8.651-1.932l-0.385-0.019l-0.804,16.156L418.694,229.865z"/>
			<path fill="#F3D800" d="M398.296,195.665l30.047,1.498c15.28,0.761,26.507,8.621,25.685,25.131
				c-0.532,10.666-6.938,19.599-18.01,21.002l22.726,32.9l-25.023-1.248l-17.489-30.687l-0.206-0.009l-1.48,29.74l-20.101-1.003
				L398.296,195.665 M420.748,231.483c5.947,0,11.923-1.493,12.297-9c0.418-8.41-6.902-10.008-13.467-10.336l-1.948-0.097
				l-0.96,19.28l1.948,0.096C419.32,231.461,420.034,231.483,420.748,231.483 M395.327,192.386l-0.156,3.124l-3.852,77.326
				l-0.155,3.123l3.124,0.155l20.1,1.003l3.124,0.156l0.156-3.124l0.963-19.357l12.372,21.703l0.849,1.491l1.714,0.085l25.022,1.247
				l6.333,0.316l-3.604-5.218l-20.107-29.11c9.288-3.135,15.384-11.652,15.941-22.857c0.436-8.737-2.277-15.984-7.843-20.96
				c-4.974-4.444-12.168-7.021-20.81-7.451l-30.049-1.498L395.327,192.386L395.327,192.386z M419.951,228.346l0.647-13
				c3.035,0.238,5.258,0.78,6.774,1.651c1.273,0.731,2.714,1.998,2.548,5.33c-0.278,5.562-4.881,6.028-9.173,6.028
				C420.487,228.354,420.223,228.352,419.951,228.346L419.951,228.346z"/>
		</g>
		<g>
			<polygon fill="#FFFFFF" points="529.799,287.005 510.696,253.025 506.201,283.528 483.193,280.135 494.939,200.439 
				517.947,203.831 513.699,232.656 539.913,207.067 568.688,211.309 531.326,244.45 559.643,291.401 			"/>
			<path fill="#F3D800" d="M496.259,202.215l19.912,2.936l-4.656,31.596l0.201,0.028l28.735-28.046l24.688,3.638l-35.823,31.776
				l27.276,45.228l-25.806-3.804l-20.805-37.008l-0.203-0.028l-4.896,33.22l-19.912-2.935L496.259,202.215 M493.62,198.664
				l-0.457,3.095l-11.289,76.6l-0.457,3.096l3.095,0.456l19.912,2.936l3.096,0.456l0.456-3.095l3.6-24.427l16.484,29.319
				l0.753,1.338l1.519,0.224l25.806,3.804l6.559,0.967l-3.423-5.676l-25.934-43l33.877-30.049l5.022-4.456l-6.644-0.979
				l-24.688-3.639l-1.532-0.226l-1.109,1.083l-22.344,21.812l3.345-22.695l0.457-3.095l-3.096-0.457l-19.912-2.936L493.62,198.664
				L493.62,198.664z"/>
		</g>
	</g>
</g>
<line fill="none" stroke="#FFFFFF" stroke-width="6" stroke-miterlimit="10" x1="319.815" y1="306.149" x2="385.518" y2="306.149"/>
<line fill="none" stroke="#FFFFFF" stroke-width="6" stroke-miterlimit="10" x1="319.815" y1="318.454" x2="385.518" y2="318.454"/>
<line fill="none" stroke="#FFFFFF" stroke-width="6" stroke-miterlimit="10" x1="319.815" y1="330.968" x2="385.518" y2="330.968"/>
</svg>
