<?xml version="1.0" encoding="utf-8"?>
<!-- Generator: Adobe Illustrator 16.0.0, SVG Export Plug-In . SVG Version: 6.00 Build 0)  -->
<!DOCTYPE svg PUBLIC "-//W3C//DTD SVG 1.1//EN" "http://www.w3.org/Graphics/SVG/1.1/DTD/svg11.dtd">
<svg version="1.1" id="Layer_1" xmlns="http://www.w3.org/2000/svg" xmlns:xlink="http://www.w3.org/1999/xlink" x="0px" y="0px"
	 width="717.795px" height="483.775px" viewBox="0 0 717.795 483.775" enable-background="new 0 0 717.795 483.775"
	 xml:space="preserve">
<rect x="-7.436" y="-6.652" fill="#00974D" width="732.833" height="495.08"/>
<path fill="none" stroke="#FFFFFF" stroke-width="6" stroke-linejoin="round" stroke-miterlimit="10" d="M569.586,196.177"/>
<line fill="none" x1="285.632" y1="267.761" x2="285.632" y2="259.259"/>
<g>
	<path fill="#FFFFFF" d="M87.398,280.024c30.044,0,37.856-40.411,45.969-61.747c4.507-12.018,9.465-21.328,17.577-31.247
		c15.773,1.052,32.449-3.003,35.453-20.731c-9.766,4.06-19.679,5.708-30.196,5.708c-10.064,0-19.981-1.201-29.895-1.201
		c-18.177,0-43.866,5.557-43.866,28.396c0,8.713,7.812,15.924,16.526,15.924c9.463,0,15.022-5.708,15.022-15.023
		c0-1.651,0-5.708-2.553-5.708c-3.607,0-3.155,12.768-12.469,12.768c-3.455,0-6.159-3.305-6.159-6.76
		c0-12.318,17.876-17.128,27.64-17.128c6.009,0,12.019,0.901,17.728,2.252c-11.717,11.718-18.628,18.781-23.886,35.004
		c-3.754,11.716-12.318,48.825-27.64,48.825c-5.408,0-9.765-5.258-9.765-10.365c0-15.476,16.673-16.374,16.673-19.68
		c0-3.454-7.662-4.66-10.366-4.66c-11.268,0-19.08,10.97-19.08,21.333C64.112,269.357,73.727,280.024,87.398,280.024z"/>
	<path fill="#FFFFFF" d="M180.935,254.115c-6.383,7.743-16.411,17.796-25.636,17.796c-4.207,0-9.614-3.605-9.614-7.962
		c0-1.802,0.601-3.306,1.653-4.506c1.652,1.2,3.754,1.806,5.859,1.806c11.868,0,21.18-14.122,21.18-24.94
		c0-8.26-8.112-13.07-15.473-13.07c-14.572,0-26.14,24.187-26.14,36.504c0,11.867,7.06,20.58,19.528,20.58
		c11.773,0,21.039-10.478,28.445-19.245c0.528,11.008,5.398,19.396,18.125,19.396c8.779,0,17.552-7.729,24.325-15.154
		c-0.274,1.587-0.44,3.101-0.44,4.488c0,6.158,4.807,9.765,10.818,9.765c9.183,0,19.279-9.223,26.074-17.004
		c-0.337,1.793-0.536,3.52-0.536,5.135c0,5.56,1.954,12.471,9.013,12.471c5.529,0,12.739-4.576,18.83-9.989
		c-1.242,2.837-2.004,4.842-2.004,5.481c0,3.605,6.911,4.209,9.614,4.209c2.103,0,2.554-1.355,3.304-3.008
		c3.156-6.158,18.178-36.054,24.487-36.054c0.753,0,1.805,0.602,1.805,1.356c0,4.657-17.276,27.04-17.276,32.148
		c0,2.854,6.61,5.258,9.014,5.258c3.605,0,20.13-37.707,26.74-37.707c1.203,0,2.103,0.901,2.103,1.956
		c0,3.153-12.918,18.177-12.918,28.091c0,6.007,5.859,8.261,10.966,8.261c9.404,0,18.991-8.49,25.857-16.428
		c1.132,9.314,8.519,16.428,18.459,16.428c10.214,0,16.525-6.609,21.782-14.571c1.202,0.601,2.552,1.052,3.906,1.052
		c1.787,0,3.547-0.35,5.225-0.962c-2.479,5.4-4.176,9.694-4.176,11.328c0,2.405,8.113,2.253,9.766,2.253
		c3.154,0,4.058-2.253,5.407-4.807c3.606-7.061,17.274-35.903,25.236-35.903c0.601,0,1.955,0.603,1.955,1.206
		c0,2.7-13.823,20.126-13.823,30.792c0,6.008,6.01,9.614,11.569,9.614c8.264,0,18.694-9.441,25.235-17.186
		c-0.289,1.644-0.451,3.227-0.451,4.716c0,5.56,1.953,12.47,9.014,12.47c7.77,0,18.851-9.029,25.483-16.732
		c0.628,7.666,4.761,16.879,13.575,16.879c5.558,0,9.766-3.753,12.919-7.961c1.052,4.356,3.606,7.961,8.562,7.961
		c8.168,0,17.722-9.131,24.425-16.756c-0.341,1.81-0.541,3.462-0.541,4.889c0,6.312,3.305,11.718,10.065,11.718
		c8.076,0,21.158-11.146,27.537-19.271c0.488,11.096,5.338,19.574,18.133,19.574c11.866,0,23.734-14.121,30.645-22.533v-6.913
		c-3.304,4.507-12.317,14.122-16.976,16.824c1.354-5.106,1.805-10.513,1.805-15.924c0-7.061-2.552-13.82-2.552-20.731
		c0-8.712,6.005-7.511,6.005-14.121c0-1.653-1.201-2.854-2.854-2.854c-8.112,0-23.135,29.443-32.898,32.902
		c-0.449,1.946-0.787,3.931-1.012,5.917c-5.046,6.13-14.738,16.013-20.019,16.013c-2.104,0-3.305-2.101-3.305-3.905
		c0-15.771,46.118-91.784,46.118-96.144c0-1.653-6.158-1.203-7.062-1.203c-5.257,0-7.66-1.201-10.064,3.755
		c-8.236,16.594-31.501,56.809-40.207,81.928c-4.374,5.46-12.345,14.216-17.475,14.216c-1.953,0-4.057-1.201-4.057-3.305
		c0-8.562,19.68-36.054,19.68-41.009c0-1.955-7.662-1.806-9.162-1.806c-3.46,0-5.714,1.356-7.663,4.058
		c-2.704-2.552-8.714-4.058-12.318-4.058c-15.949,0-28.249,18.816-30.869,34.078c-5.063,5.801-13.266,13.693-17.351,13.693
		c-2.253,0-3.904-2.104-3.904-4.057c0-10.214,17.727-35.001,17.727-39.958c0-0.903-1.5-1.203-2.103-1.203h-9.165
		c-3.305,0-3.456,0.601-4.806,3.456c-2.893,6.064-8.106,15.383-11.638,24.486c-4.183,5.498-14.704,17.427-20.809,17.427
		c-1.953,0-3.151-2.255-3.151-3.906c0-7.512,16.373-28.994,16.373-33.801c0-5.107-4.956-6.911-9.464-6.911
		c-4.207,0-7.96,2.705-11.866,2.705c-3.306-4.657-3.156-4.208-9.766-4.208c-3.305,0-4.808,1.5-6.312,4.356
		c-0.438,0.88-8.474,15.612-15.046,28.853c-2.71,2.619-5.922,4.65-9.139,4.65c-0.749,0-1.502-0.3-2.101-0.755
		c3.005-5.404,5.556-16.224,5.556-22.38c0-9.769-8.412-15.172-17.425-15.172c-16.613,0-28.416,18.147-30.474,33.632
		c-5.413,5.9-13.573,13.537-17.146,13.537c-2.102,0-3.606-2.253-3.606-4.205c0-11.418,17.727-26.44,17.727-34.401
		c0-3.755-4.656-6.01-7.959-6.01c-8.115,0-12.77,5.862-14.572,5.862c-2.555,0-2.405-7.361-7.362-7.361
		c-4.807,0-9.615,3.905-11.568,3.905c-1.953,0-0.149-3.007-3.754-3.606c-1.501-0.298-3.605-0.298-5.107-0.298
		c-3.455,0-5.258,0.752-7.061,3.606c-1.845,3.019-8.934,16.62-14.836,28.622c-5.086,5.735-12.899,13.141-16.861,13.141
		c-2.252,0-3.906-2.104-3.906-4.058c0-10.214,17.729-35.001,17.729-39.958c0-0.903-1.501-1.203-2.104-1.203h-9.164
		c-3.305,0-3.456,0.601-4.807,3.456c-2.845,5.966-7.925,15.073-11.454,24.031c-4.541,5.544-13.584,17.28-20.545,17.28
		c-2.253,0-4.355-1.953-4.355-4.056c0-7.662,8.414-22.834,12.168-30.045c5.408,0,14.721,1.5,14.721-5.708
		c0-4.211-5.406-4.211-8.26-4.508c2.253-4.356,17.126-26.439,17.126-28.543c0-3.151-6.008-2.854-7.961-2.854
		c-4.958,0-6.611,2.104-9.313,6.01c-5.709,7.961-11.268,16.073-16.076,24.487c-5.708,0-12.469-0.151-12.469,7.361
		c0,3.305,3.906,3.453,6.311,3.453c-2.218,5.591-5.839,13.426-8.442,20.949c-4.135,4.685-9.914,10.411-13.342,12.402
		c1.352-5.107,1.804-10.513,1.804-15.925c0-7.061-2.553-13.82-2.553-20.731c0-8.711,6.007-7.51,6.007-14.12
		c0-1.653-1.201-2.854-2.854-2.854c-8.113,0-23.135,29.442-32.898,32.901C181.508,249.423,181.151,251.774,180.935,254.115z
		 M160.856,232.402c1.802,0,3.305,1.652,3.305,3.459c0,5.107-4.507,15.473-10.515,15.473c-1.804,0-3.606-0.752-3.606-2.855
		C150.041,243.97,155.297,232.402,160.856,232.402z M619.635,250.879c0-1.201-0.151-2.403-0.602-3.453
		c4.057-5.109,8.112-9.913,13.07-13.822c1.502,4.806,2.252,9.913,2.252,15.019c0,6.465-1.952,19.68-10.814,19.68
		c-5.109,0-7.812-3.153-8.562-7.961C618.583,258.691,619.635,254.486,619.635,250.879z M545.88,232.402
		c2.101,0,4.955,1.502,4.955,3.906c0,6.912-13.521,32.451-21.031,32.451c-2.705,0-3.606-2.253-3.606-4.507
		C526.199,254.486,533.86,232.402,545.88,232.402z M399.412,233.005c2.555,0,5.407,1.802,5.407,4.505v0.602
		c-5.707,0.447-7.81,5.709-7.81,10.663c0,3.607,0.899,6.76,2.701,9.767c-1.802,4.958-6.759,11.113-12.467,11.113
		c-4.506,0-5.862-4.354-5.862-7.961C381.385,252.983,388.896,233.005,399.412,233.005z M190.6,250.879
		c0-1.201-0.151-2.403-0.602-3.453c4.057-5.109,8.113-9.913,13.071-13.822c1.501,4.806,2.251,9.913,2.251,15.019
		c0,6.465-1.953,19.68-10.815,19.68c-5.109,0-7.812-3.153-8.562-7.961C189.549,258.691,190.6,254.486,190.6,250.879z"/>
	<path fill="#FFFFFF" d="M279.684,214.525c0,3.152,2.253,5.405,5.408,5.405c7.061,0,11.417-8.112,11.417-14.418
		c0-3.008-1.803-5.862-5.107-5.862C284.642,199.653,279.684,208.517,279.684,214.525z"/>
	<path fill="#FFFFFF" d="M499.31,214.525c0,3.152,2.252,5.405,5.408,5.405c7.06,0,11.416-8.112,11.416-14.418
		c0-3.008-1.803-5.862-5.106-5.862C504.267,199.653,499.31,208.517,499.31,214.525z"/>
	<polygon fill="#FFFFFF" points="598.985,175.673 199.593,175.673 194.819,182.038 594.213,182.038 	"/>
	<polygon fill="#FFFFFF" points="61.175,304.545 56.402,310.909 654.62,310.909 659.393,304.545 	"/>
</g>
</svg>
