<?xml version="1.0" encoding="utf-8"?>
<!-- Generator: Adobe Illustrator 16.0.0, SVG Export Plug-In . SVG Version: 6.00 Build 0)  -->
<!DOCTYPE svg PUBLIC "-//W3C//DTD SVG 1.1//EN" "http://www.w3.org/Graphics/SVG/1.1/DTD/svg11.dtd">
<svg version="1.1" id="Layer_1" xmlns="http://www.w3.org/2000/svg" xmlns:xlink="http://www.w3.org/1999/xlink" x="0px" y="0px"
	 width="717.795px" height="483.775px" viewBox="0 0 717.795 483.775" enable-background="new 0 0 717.795 483.775"
	 xml:space="preserve">
<path fill="none" stroke="#FFFFFF" stroke-width="6" stroke-linejoin="round" stroke-miterlimit="10" d="M569.586,196.177"/>
<line fill="none" x1="285.632" y1="267.761" x2="285.632" y2="259.259"/>
<rect x="-8.71" y="-11.113" fill="#D8D9DA" width="734.108" height="503.5"/>
<g>
	<path fill="#FFFFFF" d="M197.35,176.064l0.21-1.503c0.081-0.57,0.159-1.133,0.239-1.701c-6.489,1.205-12.989,2.455-19.402,3.784
		l-2.979,0.615l0.487-2.999c5.683-35.006,11.373-69.958,17.072-104.857c-2.33,0.421-4.668,0.825-6.982,1.261l-1.442,0.271
		l-0.237,1.448c-5.795,35.494-11.581,71.042-17.362,106.645l-0.485,3l2.978-0.614c8.723-1.807,17.612-3.515,26.41-5.082
		L197.35,176.064z"/>
	<path fill="#FFFFFF" d="M242.434,109.731c6.392-16.777,12.787-33.475,19.187-50.119c-2.056,0.216-4.119,0.417-6.163,0.645
		l-1.263,0.145l-0.46,1.185c-4.986,12.963-9.967,26.01-14.949,39.055C240.002,103.676,241.219,106.688,242.434,109.731z"/>
	<path fill="#FFFFFF" d="M237.175,166.389l-1.597,0.228l-0.628-1.485c-6.956-16.502-13.903-32.928-20.842-49.275
		c-0.912,6.475-1.824,12.959-2.737,19.438c4.874,11.503,9.748,23.026,14.628,34.604l0.625,1.485l1.597-0.228
		c3.541-0.504,7.085-0.985,10.635-1.45l1.224-0.159l0.453-1.147c0.343-0.87,0.689-1.74,1.032-2.608
		C240.102,165.989,238.636,166.179,237.175,166.389z"/>
	<path fill="#FFFFFF" d="M280.329,161.257l-2.017,0.193l-6.833-53.17c-2.4,6.002-4.813,12.061-7.235,18.139l5.114,39.799
		l2.016-0.193c8.92-0.853,17.953-1.587,26.844-2.181l2.276-0.153l-0.347-2.252c-0.094-0.608-0.186-1.213-0.279-1.819
		C293.358,160.103,286.82,160.637,280.329,161.257z"/>
	<path fill="#FFFFFF" d="M380.907,161.908v-4.875c-17.332-0.186-34.815,0.074-52.072,0.837l-2.184,0.097V54.987
		c-2.32,0.085-4.641,0.15-6.953,0.253l-2,0.087v107.404l2.184-0.096c19.521-0.861,39.347-1.118,58.892-0.768L380.907,161.908z"/>
	<path fill="#FFFFFF" d="M357.799,76.541v4.718c7.001-0.03,14.01-0.007,20.974,0.118l2.134,0.039v-4.875
		C373.206,76.459,365.479,76.44,357.799,76.541z"/>
	<path fill="#FFFFFF" d="M357.799,116.512v4.713c6.441-0.025,12.885-0.01,19.331,0.095l2.127,0.036v-4.864
		C372.104,116.426,364.951,116.417,357.799,116.512z"/>
	<path fill="#FFFFFF" d="M464.43,167.298l2.32,0.255v-5.692c-17.285-1.76-34.781-3.083-52.127-3.891l-1.997-0.091V55.708
		c-2.254-0.12-4.513-0.263-6.763-0.367l-2.189-0.104v107.405l1.995,0.092C425.232,163.646,445.005,165.182,464.43,167.298z"/>
	<path fill="#FFFFFF" d="M443.746,119.249v5.526c6.35,0.552,12.718,1.144,19.045,1.824l2.316,0.25v-5.679
		C457.976,120.459,450.828,119.8,443.746,119.249z"/>
	<path fill="#FFFFFF" d="M443.746,79.278v5.53c6.923,0.603,13.844,1.251,20.684,1.999l2.32,0.253v-5.69
		C459.105,80.593,451.415,79.873,443.746,79.278z"/>
	<path fill="#FFFFFF" d="M543.403,92.334v6.472c3.523,0.689,7.035,1.391,10.508,2.112l2.523,0.521v-6.584
		C552.101,93.99,547.752,93.142,543.403,92.334z"/>
	<path fill="#FFFFFF" d="M514.308,167.898l-1.78-0.273V87.136c-6.673-1.009-13.493-1.967-20.304-2.848L490.4,84.05V63.093
		c-2.199-0.299-4.397-0.631-6.593-0.916l-2.36-0.304v26.942l1.824,0.237c6.811,0.882,13.631,1.839,20.304,2.85v80.489l1.774,0.272
		c8.921,1.37,17.88,2.875,26.629,4.473l2.47,0.453v-6.356C527.776,170.061,521.044,168.932,514.308,167.898z"/>
	<path fill="#FFFFFF" d="M307.729,303.351V200.92c-2.332,0.133-4.669,0.252-6.994,0.401l-1.959,0.126v106.668
		c0.009,19.781-1.336,38.21-13.814,47.957C305.806,348.923,307.738,327.109,307.729,303.351z"/>
	<path fill="#FFFFFF" d="M274.87,407.782c-5.565,0.546-11.017,0.825-16.217,0.825c-22.17,0-39.371-4.852-51.134-14.424
		c-19.832-15.916-21.45-40.197-21.453-67.969V215.724c-2.423,0.455-4.853,0.898-7.263,1.369l-1.692,0.333v113.552
		c0.004,27.773,1.625,52.055,21.457,67.969c11.758,9.571,28.963,14.427,51.132,14.427c5.197-0.001,10.649-0.278,16.217-0.829
		c15.857-1.656,36.331-5.887,53.321-16.191C304.354,403.259,288.022,406.406,274.87,407.782z"/>
	<path fill="#FFFFFF" d="M480.888,343.676c0.002-13.017-19.444-20.079-29.895-23.87c-31.115-11.453-55.561-20.453-55.547-61.276
		c-0.01-18.881,6.082-35.094,17.608-46.877c2.879-2.943,6.09-5.525,9.547-7.771c-6.998,2.997-13.271,7.194-18.499,12.539
		c-11.527,11.783-17.619,27.996-17.608,46.875c-0.011,40.823,24.435,49.823,55.547,61.279c10.45,3.792,29.897,10.85,29.895,23.869
		c0,4.446-1.44,7.613-3.558,9.877C474.186,356.945,480.888,353.288,480.888,343.676z"/>
	<path fill="#FFFFFF" d="M471.063,407.654c-3.754,0-7.625-0.184-11.509-0.545c-24.855-2.361-50.138-11.971-71.19-27.063
		l-1.499-1.076l0.879-1.623c6.285-11.632,12.567-23.195,18.85-34.706c-0.758-0.667-1.518-1.339-2.283-2.043l-1.969-1.805
		l-1.283,2.345c-7.422,13.573-14.846,27.232-22.271,40.977l-0.877,1.622l1.497,1.074c21.051,15.089,46.331,24.7,71.19,27.063
		c3.888,0.361,7.755,0.544,11.512,0.544c17.498,0,32.798-3.995,44.484-11.488C496.437,405.334,484.388,407.654,471.063,407.654z"/>
	<path fill="#FFFFFF" d="M473.519,242.366c-0.838-0.095-1.703-0.141-2.573-0.141c-4.731,0-11.021,1.549-14.57,5.425
		c1.944-0.451,3.884-0.662,5.615-0.662c0.873,0,1.737,0.048,2.576,0.143c11.411,1.244,23.14,7.273,33.018,16.975l1.966,1.93
		l1.333-2.411c1.161-2.104,2.32-4.172,3.484-6.271C494.959,248.84,484.112,243.521,473.519,242.366z"/>
	<path fill="#FFFFFF" d="M180.525,171.932c7.308-1.488,14.705-2.905,22.054-4.228c2.786-19.805,5.572-39.604,8.362-59.387
		l0.217-1.531l3.142-0.502l0.909,1.462c7.648,17.995,15.304,36.084,22.973,54.268c2.621-0.367,5.24-0.724,7.863-1.069
		c8.146-20.616,16.33-41.19,24.329-61.18l0.475-1.191l3.555-0.368l7.543,58.689c7.541-0.705,15.146-1.322,22.672-1.847
		c-5.005-32.655-10.009-65.272-15.01-97.849c-7.803,0.668-15.681,1.443-23.469,2.308c-7.242,18.823-14.477,37.73-21.704,56.721
		l-1.91,5.017l-1.99-4.982c-6.761-16.917-13.513-33.761-20.261-50.534c-7.692,1.238-15.453,2.583-23.113,4.009
		C191.61,103.754,186.066,137.818,180.525,171.932z"/>
	<path fill="#FFFFFF" d="M330.837,153.593c18.193-0.76,36.587-0.999,54.837-0.711v-18.539c-9.967-0.159-19.978-0.159-29.937-0.004
		l-2.127,0.034v-21.985l2.061-0.033c9.45-0.146,18.905-0.155,28.35-0.023V93.797c-9.426-0.138-18.859-0.128-28.282,0.021
		l-2.127,0.034V72.419l2.062-0.034c9.981-0.155,20.006-0.157,30,0.002V53.854c-18.248-0.288-36.644-0.049-54.835,0.715v99.024
		H330.837z"/>
	<path fill="#FFFFFF" d="M416.812,153.884c18.218,0.885,36.602,2.307,54.703,4.237v-18.516c-9.938-1.06-20.025-1.98-30.022-2.732
		l-1.937-0.146v-21.995l2.254,0.17c9.285,0.696,18.711,1.544,28.062,2.524V98.911c-9.45-0.994-18.989-1.854-28.38-2.558
		l-1.937-0.146V74.764l2.254,0.17c9.886,0.739,19.872,1.649,29.705,2.696V59.117c-18.102-1.937-36.483-3.369-54.703-4.257V153.884z"
		/>
	<path fill="#FFFFFF" d="M494.589,80.372c6.839,0.898,13.676,1.871,20.35,2.896l1.773,0.271v80.494
		c7.533,1.171,15.084,2.439,22.505,3.774V87.311l2.466,0.45c6.51,1.188,13.061,2.456,19.514,3.774v-18.45
		c-21.973-4.509-44.359-8.277-66.61-11.213v18.5H494.589z"/>
	<path fill="#FFFFFF" d="M311.917,303.351c0.007,22.125,0.022,55.555-37.068,59.063c-2.011,0.219-3.984,0.333-5.842,0.333
		c-0.001,0-0.001,0-0.003,0c-31.493-0.005-31.505-31.453-31.513-52.259V208.186c-15.77,2.237-31.641,4.901-47.238,7.923v110.107
		c0.004,26.674,1.505,49.951,19.899,64.715c11.006,8.955,27.317,13.492,48.501,13.492c5.06,0,10.377-0.27,15.793-0.806
		c19.912-2.079,47.34-8.267,64.882-25.94c18.809-18.73,20.338-42.377,20.338-69.111V198.851c-15.867,0.185-31.911,0.774-47.75,1.755
		V303.351L311.917,303.351z"/>
	<path fill="#FFFFFF" d="M486.915,283.41c-4.395-1.864-8.781-3.694-13.171-5.488l-0.92-0.4
		c-9.302-4.059-23.363-10.189-23.367-22.776c0-10.969,10.809-16.705,21.486-16.705c1.027,0,2.048,0.055,3.035,0.164
		c11.569,1.264,23.375,7.01,33.499,16.263c6.101-11.018,12.195-21.982,18.284-32.885c-17.155-12.279-40.34-21.347-59.618-23.241
		c-2.625-0.268-5.25-0.397-7.799-0.397c-17.024,0-31.652,5.753-42.302,16.638c-10.746,10.984-16.422,26.182-16.417,43.949
		c-0.007,36.143,19.019,44.907,52.645,57.287c11.558,4.2,32.803,11.911,32.795,27.862c0,14.482-12.247,19.645-23.709,19.645
		c-1.203,0-2.433-0.056-3.653-0.169c-14.963-1.378-29.804-8.73-45.297-22.451c-6.701,12.267-13.403,24.602-20.107,37.005
		c20.152,14.052,44.101,22.997,67.639,25.239c3.753,0.348,7.494,0.52,11.118,0.52c17.536,0,32.713-4.102,43.896-11.863
		c12.979-9.029,19.565-25.32,19.57-48.417C534.527,316.023,519.399,297.029,486.915,283.41z"/>
</g>
</svg>
