<?xml version="1.0" encoding="utf-8"?>
<!-- Generator: Adobe Illustrator 16.0.0, SVG Export Plug-In . SVG Version: 6.00 Build 0)  -->
<!DOCTYPE svg PUBLIC "-//W3C//DTD SVG 1.1//EN" "http://www.w3.org/Graphics/SVG/1.1/DTD/svg11.dtd">
<svg version="1.1" id="Layer_1" xmlns="http://www.w3.org/2000/svg" xmlns:xlink="http://www.w3.org/1999/xlink" x="0px" y="0px"
	 width="717.795px" height="483.775px" viewBox="0 0 717.795 483.775" enable-background="new 0 0 717.795 483.775"
	 xml:space="preserve">
<path fill="none" stroke="#FFFFFF" stroke-width="6" stroke-linejoin="round" stroke-miterlimit="10" d="M569.586,196.177"/>
<line fill="none" x1="285.632" y1="267.761" x2="285.632" y2="259.259"/>
<rect x="-5.545" y="-3.229" fill="#0082C9" width="734.692" height="487.004"/>
<g>
	<g>
		<path fill="#FFFFFF" d="M154.196,171.23v2.263c0,25.367-12.982,47.872-40.847,47.872c-26.198,0-42.75-22.15-42.75-46.919
			c0-25.606,17.028-47.636,43.823-47.636c15.241,0,28.58,7.74,35.486,21.437l-15.479,8.335c-3.576-8.098-11.196-14.29-20.484-14.29
			c-16.913,0-25.245,17.27-25.245,32.154c0,14.885,8.454,31.438,25.364,31.438c10.958,0,20.127-9.526,20.482-20.364h-19.052v-14.291
			L154.196,171.23L154.196,171.23z"/>
		<path fill="#FFFFFF" d="M184.987,144.437v19.771h27.868v15.244h-27.868v24.295h28.94v15.242h-46.445v-89.791h46.445v15.241
			L184.987,144.437L184.987,144.437z"/>
		<path fill="#FFFFFF" d="M261.534,218.985h-17.506v-74.549h-18.103v-15.242h53.706v15.242h-18.098L261.534,218.985L261.534,218.985
			z"/>
		<path fill="#FFFFFF" d="M466.513,227.942h21.797c16.671,0,26.91,6.552,26.91,24.413c0,6.434-2.26,13.813-7.855,17.387
			c10.599,1.904,15.359,12.628,15.359,22.511c0,17.625-12.384,25.483-28.696,25.483h-27.515V227.942z M484.021,265.338h2.145
			c8.572,0,12.742-2.502,12.742-11.791c0-9.169-5.24-11.554-12.623-11.554h-2.264V265.338z M484.021,303.683h3.69
			c9.409,0,17.503-1.189,17.503-12.858s-9.523-12.149-18.337-12.149h-2.856V303.683L484.021,303.683z"/>
		<path fill="#FFFFFF" d="M556.633,317.735H539.13v-89.793h17.503V317.735z"/>
		<path fill="#FFFFFF" d="M578.303,227.942h25.01c25.966,0,43.348,19.411,43.348,45.015c0,25.249-17.859,44.778-43.469,44.778
			h-24.894L578.303,227.942L578.303,227.942z M595.811,302.491h2.856c21.56,0,29.89-11.91,29.89-29.654
			c0-19.529-10.001-29.65-29.89-29.65h-2.856V302.491z"/>
	</g>
</g>
<g>
	<path fill="#FFFFFF" d="M451.513,317.708H334.492V284.26h12.03c4.436,0,9.445,0,10.677-0.681c0.024-0.112,0.055-0.325,0.055-0.676
		c0-2.382-0.298-4.59-0.885-6.566l-5.499-16.492h-42.701l-4.755,14.488c-1.185,3.315-2.102,6.067-2.176,8.516
		c0.529,0.358,2.596,1.409,8.587,1.409h12.838v33.448h-88.358v-33.448h10.696c8.529,0,12.476-6.315,15.778-15.799l48.073-138.492
		h70.884l42.929,138.087c4.504,14.042,5.198,16.205,15.469,16.205h13.378V317.708z M342.492,309.708h101.021V292.26h-5.378
		c-16.106,0-18.589-7.742-23.097-21.796l-41.191-132.497h-59.302l-46.208,133.119c-3.433,9.859-9.187,21.172-23.334,21.172h-2.696
		v17.448h72.358v-17.448h-4.838c-13.714,0-16.592-4.945-16.592-9.095c0-3.796,1.139-7.298,2.63-11.474l6.511-19.845h54.262
		l7.379,22.136c0.822,2.737,1.239,5.739,1.239,8.923c0,9.356-8.267,9.356-18.731,9.356h-4.03V309.708z M350.564,234.13h-42.265
		l20.415-72.708L350.564,234.13z M318.855,226.13h20.952l-10.832-36.043L318.855,226.13z"/>
</g>
</svg>
