<?xml version="1.0" encoding="utf-8"?>
<!-- Generator: Adobe Illustrator 16.0.0, SVG Export Plug-In . SVG Version: 6.00 Build 0)  -->
<!DOCTYPE svg PUBLIC "-//W3C//DTD SVG 1.1//EN" "http://www.w3.org/Graphics/SVG/1.1/DTD/svg11.dtd">
<svg version="1.1" id="Layer_1" xmlns="http://www.w3.org/2000/svg" xmlns:xlink="http://www.w3.org/1999/xlink" x="0px" y="0px"
	 width="717.795px" height="483.775px" viewBox="0 0 717.795 483.775" enable-background="new 0 0 717.795 483.775"
	 xml:space="preserve">
<path fill="none" stroke="#FFFFFF" stroke-width="6" stroke-linejoin="round" stroke-miterlimit="10" d="M567.586,192.177"/>
<line fill="none" x1="283.632" y1="263.761" x2="283.632" y2="255.259"/>
<g>
	<path fill="none" d="M417.075,212.963c-0.273-0.157-0.564-0.303-0.868-0.44c-0.054-0.004-0.104-0.011-0.159-0.015l-0.621,12.466
		c0.261,0.006,0.515,0.009,0.765,0.009c1.101,0,2.221-0.036,3.279-0.185c0.781-1.183,1.211-2.654,1.3-4.431
		C420.942,216.912,419.733,214.49,417.075,212.963z"/>
	<path fill="none" d="M333.626,131.81c-4.788,0.022-5.619,11.061-5.23,14.609c0.237,2.16,1.362,4.547,3.374,5.696
		c2.396-4.641,5.043-11.291,4.443-16.768C336.069,134.038,335.275,131.802,333.626,131.81z"/>
	<path fill="none" d="M336.977,230.54c-0.294-7.398-5.574-13.935-12.666-16.777c-0.338-0.019-0.673-0.049-1.015-0.049
		c-0.241,0-0.482,0.004-0.725,0.014c-4.734,0.188-9.183,2.188-12.527,5.633c-3.199,3.295-4.939,7.546-4.775,11.664
		c0.417,10.515,8.156,18.443,18.001,18.443c0.239,0,0.479-0.005,0.721-0.015c1.873-0.074,3.657-0.438,5.321-1.048
		C334.25,244.305,337.267,237.843,336.977,230.54z"/>
	<path fill="none" d="M319.297,165.138c4.631-0.021,8.926-6.678,10.988-10.083c-3.586-1.913-5.36-5.919-5.749-9.467
		c-0.804-7.328,2.683-19.923,12.454-18.193c-0.604-1.926-1.486-4.237-3.92-4.227c-9.811,0.045-20.145,28.262-19.206,36.823
		C314.177,162.845,316.158,165.151,319.297,165.138z"/>
	<path fill="none" d="M349.836,92.36L65.703,200.855l10.395,73.441l273.745,108.677L636.698,275.26l10.393-74.368L349.836,92.36z
		 M330.634,116.696c5.416-0.023,11.692,3.497,12.334,9.36c0.255,2.314-0.076,4.322-1.19,6.334l0.339,2.391
		c0.93,6.324-0.554,11.425-3.013,16.916c1.545-0.583,4.465-3.509,5.747-3.914c1.205-2.845,2.393-4.898,3.245-5.002
		c0.69-0.158,1.474-0.161,2.257-0.164c0.551-0.003,4.38-0.174,4.482,0.751c0.135,1.234-7.539,16.473-7.251,19.095
		c0.076,0.694,0.771,1.309,1.556,1.305c0.707-0.003,1.325-0.083,1.834-0.472c1.826-1.243,6.371-14.229,7.706-17.09
		c0.817-1.856,1.579-2.785,3.776-2.795c1.021-0.005,4.693-0.176,4.862,1.367c0.271,2.469-6.968,13.074-6.251,19.631
		c0.104,0.926,0.877,1.539,1.74,1.535c2.435-0.01,6.079-3.817,8.467-6.835l-0.048-0.149c1.566-1.473,3.773-7.117,4.165-9.279
		c-0.93-0.614-1.294-1.77-1.396-2.696c-0.439-4.01,1.975-8.498,6.369-8.517c1.023-0.005,1.899,0.84,2.011,1.843
		c0.101,0.926-0.278,1.776-0.177,2.702c0.068,0.617,0.757,1.154,1.384,1.151c1.099-0.005,1.504-1.318,2.603-1.323
		c1.414-0.007,8.65,0.115,8.839,1.812c0.278,2.546-9.821,15.711-9.407,19.491c0.102,0.925,1.041,1.615,1.904,1.612
		c3.454-0.016,8.438-6.83,10.114-9.46l0.389,3.548c-2.421,3.715-8.866,11.539-13.888,11.561c-2.826,0.013-5.984-2.288-6.307-5.22
		c-0.626-5.707,5.73-12.914,5.502-14.997l-0.584-0.306l-0.635-0.074c-1.413,0.006-2.559,0.32-3.995,0.095
		c-1.225,3.864-3.291,7.964-5.933,11.063l-0.006-0.019c-2.992,4.022-7.848,9.624-12.366,9.644c-2.51,0.012-4.97-2.37-6.219-4.447
		c-1.943,1.629-4.767,3.802-7.671,3.815c-3.532,0.017-5.558-1.981-5.93-5.375c-0.187-1.706,1.071-6.968,2.719-12.009
		c-2.047,1.136-4.337,1.95-5.76,2.143c-3.901,5.96-10.451,16.41-18.692,16.446c-7.614,0.034-11.825-8.282-12.509-14.53
		C304.298,144.367,314.857,116.767,330.634,116.696z M262.08,197.597l-11.801,77.051l-0.332,2.165l-2.164,0.344l-19.451,3.087
		l-2.2,0.35l-0.7-1.446l-4.572,0.726l-0.162-0.334l-12.463-25.752l-4.842,28.352l-0.362,2.121l-2.125,0.337l-19.354,3.071
		l-2.208,0.351l-0.694-1.446l-4.572,0.726L140.107,216.5l4.572-0.726l-1.563-3.258l3.976-0.631l19.84-3.149l2.271-0.36l0.938,2.1
		l13.416,30.028l4.995-31.692l3.96-0.628l0.228-1.442l0.339-2.154l2.154-0.342l15.172-2.408l2.196-0.349l0.972,2l14.537,29.909
		l4-31.499l4.016-0.637l0.171-1.347l0.284-2.232l2.222-0.353l19.84-3.149l4.058-0.644L262.08,197.597z M274.981,232.904
		c-0.426-10.715,3.683-20.794,11.569-28.379c3.089-2.971,6.681-5.45,10.578-7.375c7.107-4.867,15.703-7.765,24.462-8.113
		c0.611-0.024,1.233-0.037,1.848-0.037h0.003l0,1.5l0,0v-1.5c11.048,0,21.631,3.844,29.798,10.825
		c8.597,7.349,13.575,17.519,14.018,28.638c1.011,25.456-16.772,44.667-42.285,45.682c-0.695,0.027-1.397,0.041-2.087,0.041
		c-4.752,0-9.342-0.681-13.65-1.971C289.56,269.297,275.817,253.955,274.981,232.904z M382.405,322.388h-63.008v-6h63.008V322.388z
		 M382.405,310.388h-63.008v-6h63.008V310.388z M382.405,298.587h-63.008v-6h63.008V298.587z M452.479,273.857l-23.997-1.196
		l-1.643-0.082l-0.661-1.16l-4.56-0.228l-0.136-0.237l-7.678-13.471l-0.568,11.416l-0.149,2.996l-2.996-0.149l-19.276-0.962
		l-2.996-0.149l0.056-1.124l-4.148-0.207l0.025-0.499l3.719-74.654l4.149,0.207l0.043-0.873l0.149-2.996l2.996,0.149l28.816,1.436
		c8.287,0.413,15.188,2.884,19.956,7.146c5.338,4.771,7.938,11.722,7.521,20.101c-0.535,10.745-6.38,18.914-15.288,21.919
		l19.284,27.917l3.456,5.004L452.479,273.857z M556.651,211.895l-32.487,28.817l24.869,41.236l3.283,5.443l-6.29-0.927
		l-24.747-3.647l-1.456-0.215l-0.722-1.283l-0.105-0.188l-5.309-0.782l-11.404-20.286l-2.441,16.563l-0.438,2.968l-2.968-0.438
		l-19.096-2.815l-2.968-0.438l0.212-1.436l-4.088-0.636l10.974-74.449l4.087,0.636l0.08-0.542l0.438-2.968l2.968,0.438l19.096,2.815
		l2.968,0.438l-0.438,2.968l-2.52,17.096l14.95-14.592l3.556,0.524l2.234-2.181l1.063-1.038l1.47,0.217l23.675,3.489l6.371,0.939
		L556.651,211.895z"/>
	<path fill="#FFFFFF" d="M318.262,172.165c8.241-0.037,14.791-10.486,18.692-16.446c1.423-0.193,3.713-1.007,5.76-2.143
		c-1.648,5.041-2.906,10.303-2.719,12.009c0.373,3.394,2.398,5.392,5.93,5.375c2.904-0.013,5.728-2.187,7.671-3.815
		c1.249,2.078,3.709,4.459,6.219,4.447c4.519-0.02,9.374-5.622,12.366-9.644l0.006,0.019c2.642-3.099,4.708-7.199,5.933-11.063
		c1.437,0.225,2.582-0.089,3.995-0.095l0.635,0.074l0.584,0.306c0.229,2.083-6.128,9.29-5.502,14.997
		c0.322,2.932,3.48,5.232,6.307,5.22c5.021-0.022,11.467-7.846,13.888-11.561l-0.389-3.548c-1.676,2.631-6.66,9.444-10.114,9.46
		c-0.863,0.003-1.803-0.687-1.904-1.612c-0.414-3.78,9.686-16.945,9.407-19.491c-0.188-1.697-7.425-1.818-8.839-1.812
		c-1.099,0.005-1.504,1.317-2.603,1.323c-0.627,0.003-1.315-0.534-1.384-1.151c-0.102-0.926,0.277-1.776,0.177-2.702
		c-0.111-1.003-0.987-1.848-2.011-1.843c-4.395,0.019-6.809,4.507-6.369,8.517c0.102,0.926,0.466,2.082,1.396,2.696
		c-0.392,2.162-2.599,7.806-4.165,9.279l0.048,0.149c-2.388,3.018-6.032,6.825-8.467,6.835c-0.863,0.004-1.637-0.609-1.74-1.535
		c-0.717-6.557,6.521-17.163,6.251-19.631c-0.169-1.543-3.841-1.373-4.862-1.367c-2.197,0.01-2.959,0.939-3.776,2.795
		c-1.335,2.861-5.88,15.848-7.706,17.09c-0.509,0.388-1.127,0.469-1.834,0.472c-0.785,0.003-1.48-0.611-1.556-1.305
		c-0.288-2.622,7.387-17.861,7.251-19.095c-0.102-0.925-3.931-0.754-4.482-0.751c-0.783,0.003-1.567,0.006-2.257,0.164
		c-0.852,0.104-2.04,2.157-3.245,5.002c-1.282,0.405-4.202,3.331-5.747,3.914c2.459-5.491,3.943-10.592,3.013-16.916l-0.339-2.391
		c1.114-2.012,1.445-4.02,1.19-6.334c-0.643-5.863-6.918-9.383-12.334-9.36c-15.777,0.07-26.336,27.67-24.881,40.939
		C306.438,163.883,310.648,172.199,318.262,172.165z M331.77,152.116c-2.012-1.149-3.137-3.537-3.374-5.696
		c-0.389-3.548,0.442-14.587,5.23-14.609c1.649-0.008,2.443,2.228,2.587,3.538C336.813,140.825,334.166,147.475,331.77,152.116z
		 M333.07,123.167c2.434-0.01,3.316,2.301,3.92,4.227c-9.771-1.73-13.258,10.865-12.454,18.193c0.389,3.548,2.163,7.554,5.749,9.467
		c-2.062,3.404-6.357,10.062-10.988,10.083c-3.14,0.013-5.12-2.293-5.433-5.147C312.926,151.429,323.259,123.213,333.07,123.167z"/>
	<path fill="#FFFFFF" d="M349.789,85.956l-290.697,111l11.554,81.63l278.06,110.39l1.077,0.428l292.365-109.781l11.557-82.704
		L349.789,85.956z M636.698,275.26L349.843,382.973L76.098,274.296l-10.395-73.441L349.836,92.36l297.255,108.532L636.698,275.26z"
		/>
	<polygon fill="#FFFFFF" points="178.378,286.003 144.858,216.146 144.68,215.774 140.107,216.5 174.079,287.298 178.651,286.572 	
		"/>
	<polygon fill="#FFFFFF" points="225.162,278.588 209.52,246.267 208.235,253.787 220.698,279.539 220.86,279.873 225.433,279.147 	
		"/>
	<polygon fill="#FFFFFF" points="231.23,239.815 236.127,201.261 232.111,201.898 228.111,233.396 	"/>
	<polygon fill="#FFFFFF" points="186.412,246.892 192.513,208.182 188.552,208.811 183.557,240.503 	"/>
	<path fill="#FFFFFF" d="M324.312,213.763c7.091,2.842,12.371,9.379,12.666,16.777c0.29,7.303-2.728,13.765-7.665,17.866
		c7.284-2.667,12.228-10.069,11.88-18.808C340.863,221.302,333.238,214.267,324.312,213.763z"/>
	<path fill="#FFFFFF" d="M292.25,262.434c-7.94-7.625-12.576-18.446-13.053-30.471c-0.455-11.439,3.926-22.193,12.334-30.28
		c1.727-1.661,3.607-3.169,5.598-4.532c-3.897,1.925-7.489,4.403-10.578,7.375c-7.886,7.585-11.995,17.664-11.569,28.379
		c0.836,21.051,14.579,36.393,34.254,39.312C302.791,270.285,296.981,266.977,292.25,262.434z"/>
	<path fill="#FFFFFF" d="M422.544,214.091c-1.427-0.819-3.511-1.334-6.337-1.568c0.304,0.138,0.595,0.283,0.868,0.44
		c2.658,1.526,3.867,3.948,3.695,7.404c-0.089,1.777-0.519,3.248-1.3,4.431c2.899-0.408,5.322-1.689,5.517-5.596
		C425.146,216.006,423.766,214.792,422.544,214.091z"/>
	<polygon fill="#FFFFFF" points="414.161,250.336 413.806,257.483 421.483,270.954 421.619,271.191 426.179,271.419 426.025,271.15 
			"/>
	<polygon fill="#FFFFFF" points="387.969,267.639 391.62,194.357 387.471,194.151 383.752,268.805 383.727,269.304 387.875,269.511 
			"/>
	<polygon fill="#FFFFFF" points="507.462,224.931 526.655,206.196 523.1,205.672 508.149,220.264 	"/>
	<polygon fill="#FFFFFF" points="503.294,253.202 502.283,260.063 513.688,280.35 518.996,281.132 	"/>
	<polygon fill="#FFFFFF" points="474.811,272.937 485.558,200.02 481.471,199.384 470.497,273.833 474.585,274.469 	"/>
	<polygon fill="#FFFFFF" points="239.274,200.292 232.98,249.848 232.786,249.878 210.875,204.799 195.704,207.207 187.854,257.009 
		187.66,257.04 167.402,211.699 147.562,214.848 181.083,284.705 200.437,281.634 208.085,236.848 208.28,236.817 227.862,277.281 
		247.313,274.194 259.114,197.143 	"/>
	<path fill="#FFFFFF" d="M321.71,192.035c-21.353,0.849-40.407,17.374-39.516,39.809c0.927,23.345,17.866,39.343,40.691,39.343
		c0.65,0,1.308-0.013,1.968-0.039c23.813-0.946,40.36-18.555,39.406-42.564c-0.867-21.829-20.112-36.584-40.82-36.582
		C322.865,192.001,322.287,192.012,321.71,192.035z M324.111,252.452c-0.281,0.011-0.561,0.017-0.84,0.017
		c-11.146,0-20.503-8.844-20.999-21.324c-0.407-10.233,8.668-19.956,20.181-20.414c0.282-0.011,0.563-0.017,0.844-0.017
		c11.144,0,20.496,8.783,20.894,18.765C344.699,242.271,335.624,251.994,324.111,252.452z"/>
	<polygon fill="#FFFFFF" points="323.442,190.501 323.442,190.501 323.442,192.001 	"/>
	<path fill="#FFFFFF" d="M448.105,219.171c0.789-15.834-9.977-23.371-24.63-24.101l-28.816-1.436l-3.694,74.154l19.276,0.962
		l1.42-28.521l0.197,0.009l16.773,29.428l23.997,1.196l-21.794-31.551C441.451,237.966,447.596,229.399,448.105,219.171z
		 M416.191,227.983c-0.685,0-1.369-0.021-2.043-0.054l-1.868-0.092l0.921-18.49l1.868,0.093c6.295,0.314,13.316,1.847,12.914,9.912
		C427.625,226.551,421.895,227.983,416.191,227.983z"/>
	<polygon fill="#FFFFFF" points="503.43,233.059 503.235,233.03 507.701,202.73 488.605,199.915 477.778,273.374 496.874,276.189 
		501.569,244.331 501.765,244.359 521.717,279.85 546.464,283.497 520.306,240.124 554.66,209.651 530.985,206.162 	"/>
	<rect x="319.397" y="292.587" fill="#FFFFFF" width="63.008" height="6"/>
	<rect x="319.397" y="304.388" fill="#FFFFFF" width="63.008" height="6"/>
	<rect x="319.397" y="316.388" fill="#FFFFFF" width="63.008" height="6"/>
</g>
</svg>
