<?xml version="1.0" encoding="utf-8"?>
<!-- Generator: Adobe Illustrator 16.0.0, SVG Export Plug-In . SVG Version: 6.00 Build 0)  -->
<!DOCTYPE svg PUBLIC "-//W3C//DTD SVG 1.1//EN" "http://www.w3.org/Graphics/SVG/1.1/DTD/svg11.dtd">
<svg version="1.1" id="Layer_1" xmlns="http://www.w3.org/2000/svg" xmlns:xlink="http://www.w3.org/1999/xlink" x="0px" y="0px"
	 width="209px" height="484.805px" viewBox="0 0 209 484.805" enable-background="new 0 0 209 484.805" xml:space="preserve">
<g>
	<g>
		<path fill="#FFFFFF" d="M140.146,132.178l5.586,8.066v66.348H65.107v-66.35l5.575-8.059l6.64,9.599l4.935,7.134l4.935-7.134
			l6.64-9.599l6.642,9.6l4.934,7.132l4.935-7.132l6.644-9.602l6.646,9.603l4.935,7.128l4.934-7.128L140.146,132.178
			 M140.146,121.637l-11.582,16.732l-11.58-16.732l-11.576,16.732l-11.577-16.732l-11.574,16.732l-11.574-16.732l-11.575,16.732
			v74.223h92.625v-74.223L140.146,121.637L140.146,121.637z"/>
	</g>
	<g>
		<rect x="60.06" y="219.317" fill="#FFFFFF" width="90.719" height="12.356"/>
		<path fill="#FFFFFF" d="M61.014,220.206h88.812v10.58H61.014V220.206 M59.107,218.429v1.776v10.58v1.777h1.906h88.812h1.905
			v-1.777v-10.58v-1.776h-1.905H61.014H59.107L59.107,218.429z"/>
	</g>
	<g>
		<path fill="#FFFFFF" d="M65.15,244.291l80.568,0.146l-0.032,14.938c-9.213,4.307-20.461,14.946-24.131,21.406l-0.781,1.378v1.585
			v51.854c0,10.17-6.325,17.273-15.383,17.273c-9.057,0-15.381-7.104-15.381-17.27l0.043-51.718l0.001-1.526l-0.73-1.344
			c-3.473-6.39-14.95-17.404-24.207-21.783L65.15,244.291 M59.163,238.28l-0.054,24.806l3.116,1.418
			c7.947,3.615,18.81,13.824,21.827,19.376l-0.043,51.718c0,13.484,8.989,23.273,21.38,23.273s21.383-9.789,21.383-23.273v-51.854
			c3.156-5.559,13.916-15.545,21.781-19.084l3.123-1.404l0.055-24.807L59.163,238.28L59.163,238.28z"/>
	</g>
</g>
</svg>
