<?xml version="1.0" encoding="utf-8"?>
<!-- Generator: Adobe Illustrator 16.0.0, SVG Export Plug-In . SVG Version: 6.00 Build 0)  -->
<!DOCTYPE svg PUBLIC "-//W3C//DTD SVG 1.1//EN" "http://www.w3.org/Graphics/SVG/1.1/DTD/svg11.dtd">
<svg version="1.1" id="Layer_1" xmlns="http://www.w3.org/2000/svg" xmlns:xlink="http://www.w3.org/1999/xlink" x="0px" y="0px"
	 width="209px" height="484.805px" viewBox="0 0 209 484.805" enable-background="new 0 0 209 484.805" xml:space="preserve">
<g>
	<g>
		<path fill="#FFFFFF" d="M94.477,150.763v1.197c0,13.424-6.87,25.333-21.615,25.333c-13.864,0-22.622-11.722-22.622-24.829
			c0-13.55,9.011-25.208,23.189-25.208c8.066,0,15.125,4.096,18.779,11.344l-8.191,4.411c-1.892-4.286-5.926-7.562-10.84-7.562
			c-8.949,0-13.359,9.138-13.359,17.015s4.473,16.636,13.423,16.636c5.798,0,10.649-5.041,10.838-10.776H73.997v-7.562
			L94.477,150.763L94.477,150.763z"/>
		<path fill="#FFFFFF" d="M110.771,136.584v10.462h14.747v8.067h-14.747v12.856h15.313v8.065h-24.576V128.52h24.576v8.066
			L110.771,136.584L110.771,136.584z"/>
		<path fill="#FFFFFF" d="M151.277,176.035h-9.263v-39.45h-9.58v-8.065h28.419v8.065h-9.576V176.035z"/>
		<g>
			<path fill="#FFFFFF" d="M159.618,277.383h-57.331v-17.044h6.259c1.841,0,3.9,0,4.713-0.205c-0.001-1.11-0.14-2.136-0.415-3.048
				l-2.532-7.599H90.39l-2.171,6.621c-0.53,1.484-0.938,2.697-1.027,3.747c0.407,0.179,1.431,0.481,3.664,0.481h6.649v17.044H53.99
				v-17.044h5.616c2.777,0,5.06-1.242,7.172-7.306l23.282-67.073h34.838l20.794,66.892c2.198,6.852,2.531,7.488,7.018,7.488h6.909
				V277.383z M107.063,272.607h47.778v-7.491h-2.133c-8.099,0-9.332-3.847-11.571-10.828l-19.757-63.553H93.458L71.29,254.598
				c-1.706,4.897-4.575,10.517-11.684,10.517h-0.84v7.492h33.962v-7.492h-1.874c-7.358,0-8.457-3.036-8.457-4.846
				c0-1.911,0.563-3.642,1.302-5.709l3.23-9.848h26.824l3.643,10.93c0.433,1.432,0.64,2.924,0.64,4.502
				c0,4.973-4.398,4.973-9.49,4.973h-1.482V272.607z M111.113,237.092h-21.6l10.432-37.158L111.113,237.092z M95.815,232.316h8.875
				l-4.59-15.267L95.815,232.316z"/>
		</g>
		<path fill="#FFFFFF" d="M60.522,291.853h11.533c8.822,0,14.241,3.467,14.241,12.918c0,3.403-1.195,7.311-4.159,9.199
			c5.608,1.009,8.129,6.683,8.129,11.914c0,9.325-6.553,13.485-15.186,13.485h-14.56V291.853z M69.787,311.641h1.135
			c4.536,0,6.743-1.324,6.743-6.239c0-4.853-2.773-6.114-6.68-6.114h-1.197V311.641z M69.787,331.931h1.954
			c4.979,0,9.262-0.63,9.262-6.805s-5.04-6.43-9.704-6.43h-1.513L69.787,331.931L69.787,331.931z"/>
		<path fill="#FFFFFF" d="M108.21,339.369h-9.262v-47.517h9.262V339.369z"/>
		<path fill="#FFFFFF" d="M119.678,291.853h13.234c13.738,0,22.938,10.271,22.938,23.82c0,13.36-9.451,23.696-23.003,23.696h-13.171
			L119.678,291.853L119.678,291.853z M128.942,331.301h1.513c11.407,0,15.814-6.303,15.814-15.692
			c0-10.334-5.291-15.689-15.814-15.689h-1.513V331.301z"/>
	</g>
</g>
</svg>
