<?xml version="1.0" encoding="utf-8"?>
<!-- Generator: Adobe Illustrator 16.0.0, SVG Export Plug-In . SVG Version: 6.00 Build 0)  -->
<!DOCTYPE svg PUBLIC "-//W3C//DTD SVG 1.1//EN" "http://www.w3.org/Graphics/SVG/1.1/DTD/svg11.dtd">
<svg version="1.1" id="Layer_1" xmlns="http://www.w3.org/2000/svg" xmlns:xlink="http://www.w3.org/1999/xlink" x="0px" y="0px"
	 width="717.795px" height="483.775px" viewBox="0 0 717.795 483.775" enable-background="new 0 0 717.795 483.775"
	 xml:space="preserve">
<rect x="10.616" y="515.97" fill="#F3D800" width="717.628" height="484.806"/>
<g>
	<polygon fill="#FFFFFF" points="313.407,148.812 313.407,157.5 214.122,83.865 107.764,158.14 107.764,149.636 214.239,75.281 	"/>
</g>
<g>
	<polygon fill="#FFFFFF" points="461.236,259.363 461.236,268.028 375.878,204.732 285.632,267.761 285.632,259.259 
		375.995,196.147 	"/>
</g>
<g>
	<polygon fill="#FFFFFF" points="607.404,161.787 607.404,170.232 607.299,170.372 545.221,124.336 479.811,170.011 
		479.811,161.531 545.336,115.751 	"/>
</g>
<g>
	<polygon fill="#FFFFFF" points="439.408,158.871 439.408,167.537 277.373,47.529 222.66,86.223 218.63,80.531 277.478,38.934 	"/>
</g>
<line fill="none" stroke="#FFFFFF" stroke-width="6" stroke-miterlimit="10" x1="279.923" y1="128.327" x2="144.373" y2="128.327"/>
<line fill="none" stroke="#FFFFFF" stroke-width="6" stroke-miterlimit="10" x1="594.809" y1="158.14" x2="491.174" y2="158.14"/>
<line fill="none" stroke="#FFFFFF" stroke-width="6" stroke-miterlimit="10" x1="456.482" y1="259.543" x2="291.14" y2="259.543"/>
<line fill="none" stroke="#FFFFFF" stroke-width="6" stroke-miterlimit="10" x1="340.938" y1="91.044" x2="229.811" y2="91.044"/>
<polyline fill="none" stroke="#FFFFFF" stroke-width="6" stroke-linecap="round" stroke-linejoin="round" stroke-miterlimit="3" points="
	304.269,250.498 39.24,250.498 132.546,232.861 "/>
<line fill="none" stroke="#FFFFFF" stroke-width="6" stroke-linejoin="round" stroke-miterlimit="10" x1="132.546" y1="136.586" x2="132.546" y2="232.861"/>
<line fill="none" stroke="#FFFFFF" stroke-width="6" stroke-linejoin="round" stroke-miterlimit="10" x1="297.185" y1="232.717" x2="297.185" y2="141.127"/>
<line fill="none" stroke="#FFFFFF" stroke-width="6" stroke-linejoin="round" stroke-miterlimit="10" x1="415.797" y1="145.711" x2="415.797" y2="230.756"/>
<polyline fill="none" stroke="#FFFFFF" stroke-width="6" stroke-linejoin="round" stroke-miterlimit="10" points="594.809,158.233 
	594.809,241.32 493.51,241.32 493.51,157.806 "/>
<polyline fill="none" stroke="#FFFFFF" stroke-width="6" stroke-linejoin="round" stroke-miterlimit="10" points="594.809,183.61 
	683.361,280.323 447.623,280.323 "/>
<path fill="none" stroke="#FFFFFF" stroke-width="6" stroke-linejoin="round" stroke-miterlimit="10" d="M569.586,196.177"/>
<line fill="none" stroke="#FFFFFF" stroke-width="6" stroke-linejoin="round" stroke-miterlimit="10" x1="415.797" y1="145.661" x2="508.982" y2="145.761"/>
<polyline fill="none" stroke="#FFFFFF" stroke-width="6" stroke-miterlimit="10" points="659.846,280.323 659.846,389.303 
	458.051,389.303 "/>
<polyline fill="#FFFFFF" stroke="#FFFFFF" stroke-width="6" stroke-miterlimit="10" points="300.847,259.543 295.685,334.812 
	285.456,350.873 323.216,350.873 314.817,334.812 310.229,259.543 "/>
<polyline fill="#FFFFFF" stroke="#FFFFFF" stroke-width="6" stroke-miterlimit="10" points="436.938,259.543 431.775,334.812 
	421.547,350.873 459.307,350.873 450.91,334.812 446.32,259.543 "/>
<polyline fill="none" stroke="#FFFFFF" stroke-width="6" stroke-miterlimit="10" points="285.456,350.873 285.456,408.229 
	323.216,408.229 323.216,350.873 "/>
<polyline fill="#FFFFFF" stroke="#FFFFFF" stroke-width="6" stroke-miterlimit="10" points="67.345,252.792 62.183,328.062 
	51.955,344.121 89.714,344.121 81.316,328.062 76.728,252.792 "/>
<polyline fill="none" stroke="#FFFFFF" stroke-width="6" stroke-miterlimit="10" points="51.955,344.121 51.955,401.479 
	89.714,401.479 89.714,344.121 "/>
<polyline fill="#FFFFFF" stroke="#FFFFFF" stroke-width="6" stroke-miterlimit="10" points="123.151,252.792 117.989,328.062 
	107.761,344.121 145.521,344.121 137.122,328.062 132.534,252.792 "/>
<polyline fill="none" stroke="#FFFFFF" stroke-width="6" stroke-miterlimit="10" points="107.761,344.121 107.761,401.479 
	145.521,401.479 145.521,344.121 "/>
<polyline fill="none" stroke="#FFFFFF" stroke-width="6" stroke-miterlimit="10" points="421.453,350.873 421.453,408.229 
	459.211,408.229 459.211,350.873 "/>
<line fill="none" stroke="#FFFFFF" stroke-width="6" stroke-linejoin="round" stroke-miterlimit="10" x1="329.52" y1="232.861" x2="131.011" y2="232.717"/>
<line fill="none" stroke="#FFFFFF" stroke-width="6" stroke-miterlimit="10" x1="420.291" y1="378.39" x2="320.893" y2="378.39"/>
<line fill="none" stroke="#FFFFFF" stroke-width="6" stroke-miterlimit="10" x1="420.291" y1="393.303" x2="320.893" y2="393.303"/>
<line fill="none" stroke="#FFFFFF" stroke-width="6" stroke-miterlimit="10" x1="420.291" y1="408.229" x2="318.569" y2="408.229"/>
<polyline fill="none" stroke="#FFFFFF" stroke-width="6" stroke-miterlimit="10" points="267.536,232.717 267.536,163.07 
	161.425,163.07 161.425,232.717 "/>
<line fill="none" stroke="#FFFFFF" stroke-width="6" stroke-miterlimit="10" x1="198.134" y1="163.07" x2="198.134" y2="232.717"/>
<line fill="none" stroke="#FFFFFF" stroke-width="6" stroke-miterlimit="10" x1="231.427" y1="163.07" x2="231.427" y2="232.717"/>
<polyline fill="none" stroke="#FFFFFF" stroke-width="6" stroke-miterlimit="10" points="356.967,214.503 318.054,214.503 
	318.054,169.278 390.898,169.278 390.898,211.579 "/>
<line fill="none" stroke="#FFFFFF" stroke-width="6" stroke-miterlimit="10" x1="354.475" y1="169.278" x2="354.475" y2="212.018"/>
<polyline fill="none" stroke="#FFFFFF" stroke-width="6" stroke-miterlimit="10" points="572.713,241.32 572.713,175.45 
	515.879,175.45 515.879,239.025 "/>
<line fill="none" stroke="#FFFFFF" stroke-width="6" stroke-miterlimit="10" x1="544.297" y1="175.02" x2="544.297" y2="241.32"/>
<polyline fill="none" stroke="#FFFFFF" stroke-width="6" stroke-miterlimit="10" points="633.461,389.303 633.461,298.457 
	474.865,298.457 474.865,389.303 "/>
<polyline fill="none" stroke="#FFFFFF" stroke-width="6" stroke-miterlimit="10" points="346.727,379.551 346.727,282.646 
	398.324,282.646 398.324,379.551 "/>
<rect x="160.263" y="274.015" fill="none" stroke="#FFFFFF" stroke-width="6" stroke-miterlimit="10" width="98.655" height="84.887"/>
<line fill="none" stroke="#FFFFFF" stroke-width="6" stroke-miterlimit="10" x1="186.074" y1="274.015" x2="186.074" y2="358.901"/>
<line fill="none" stroke="#FFFFFF" stroke-width="6" stroke-miterlimit="10" x1="234.211" y1="358.901" x2="234.211" y2="274.015"/>
<line fill="none" stroke="#FFFFFF" stroke-width="6" stroke-miterlimit="10" x1="258.918" y1="298.457" x2="160.263" y2="298.457"/>
<line fill="none" stroke="#FFFFFF" stroke-width="6" stroke-miterlimit="10" x1="145.521" y1="389.303" x2="283.133" y2="389.303"/>
<line fill="none" stroke="#FFFFFF" stroke-width="6" stroke-miterlimit="10" x1="105.222" y1="389.303" x2="88.69" y2="389.303"/>
<g>
	<line fill="none" stroke="#FFFFFF" stroke-width="6" stroke-miterlimit="10" x1="51.955" y1="357.74" x2="91.707" y2="357.74"/>
	<line fill="none" stroke="#FFFFFF" stroke-width="6" stroke-miterlimit="10" x1="51.955" y1="372.181" x2="91.707" y2="372.181"/>
	<line fill="none" stroke="#FFFFFF" stroke-width="6" stroke-miterlimit="10" x1="51.955" y1="386.896" x2="91.707" y2="386.896"/>
	<line fill="none" stroke="#FFFFFF" stroke-width="6" stroke-miterlimit="10" x1="72.346" y1="346.238" x2="72.346" y2="358.901"/>
	<line fill="none" stroke="#FFFFFF" stroke-width="6" stroke-miterlimit="10" x1="70.834" y1="388.131" x2="70.834" y2="400.797"/>
	<line fill="none" stroke="#FFFFFF" stroke-width="6" stroke-miterlimit="10" x1="62.732" y1="358.901" x2="62.732" y2="371.565"/>
	<line fill="none" stroke="#FFFFFF" stroke-width="6" stroke-miterlimit="10" x1="79.316" y1="373.219" x2="79.316" y2="385.883"/>
</g>
<g>
	<line fill="none" stroke="#FFFFFF" stroke-width="6" stroke-miterlimit="10" x1="107.615" y1="357.74" x2="147.368" y2="357.74"/>
	
		<line fill="none" stroke="#FFFFFF" stroke-width="6" stroke-miterlimit="10" x1="107.615" y1="372.181" x2="147.368" y2="372.181"/>
	
		<line fill="none" stroke="#FFFFFF" stroke-width="6" stroke-miterlimit="10" x1="107.615" y1="386.896" x2="147.368" y2="386.896"/>
	
		<line fill="none" stroke="#FFFFFF" stroke-width="6" stroke-miterlimit="10" x1="128.006" y1="346.238" x2="128.006" y2="358.901"/>
	
		<line fill="none" stroke="#FFFFFF" stroke-width="6" stroke-miterlimit="10" x1="126.495" y1="388.131" x2="126.495" y2="400.797"/>
	
		<line fill="none" stroke="#FFFFFF" stroke-width="6" stroke-miterlimit="10" x1="118.393" y1="358.901" x2="118.393" y2="371.565"/>
	
		<line fill="none" stroke="#FFFFFF" stroke-width="6" stroke-miterlimit="10" x1="134.977" y1="373.219" x2="134.977" y2="385.883"/>
</g>
<g>
	
		<line fill="none" stroke="#FFFFFF" stroke-width="6" stroke-miterlimit="10" x1="285.634" y1="363.774" x2="325.387" y2="363.774"/>
	
		<line fill="none" stroke="#FFFFFF" stroke-width="6" stroke-miterlimit="10" x1="285.634" y1="378.215" x2="325.387" y2="378.215"/>
	
		<line fill="none" stroke="#FFFFFF" stroke-width="6" stroke-miterlimit="10" x1="285.634" y1="392.928" x2="325.387" y2="392.928"/>
	
		<line fill="none" stroke="#FFFFFF" stroke-width="6" stroke-miterlimit="10" x1="306.025" y1="352.271" x2="306.025" y2="364.937"/>
	<line fill="none" stroke="#FFFFFF" stroke-width="6" stroke-miterlimit="10" x1="304.514" y1="394.166" x2="304.514" y2="406.83"/>
	
		<line fill="none" stroke="#FFFFFF" stroke-width="6" stroke-miterlimit="10" x1="296.412" y1="364.937" x2="296.412" y2="377.601"/>
	
		<line fill="none" stroke="#FFFFFF" stroke-width="6" stroke-miterlimit="10" x1="312.996" y1="379.252" x2="312.996" y2="391.918"/>
</g>
<g>
	
		<line fill="none" stroke="#FFFFFF" stroke-width="6" stroke-miterlimit="10" x1="421.289" y1="363.774" x2="461.041" y2="363.774"/>
	
		<line fill="none" stroke="#FFFFFF" stroke-width="6" stroke-miterlimit="10" x1="421.289" y1="378.215" x2="461.041" y2="378.215"/>
	
		<line fill="none" stroke="#FFFFFF" stroke-width="6" stroke-miterlimit="10" x1="421.289" y1="392.928" x2="461.041" y2="392.928"/>
	
		<line fill="none" stroke="#FFFFFF" stroke-width="6" stroke-miterlimit="10" x1="441.682" y1="352.271" x2="441.682" y2="364.937"/>
	<line fill="none" stroke="#FFFFFF" stroke-width="6" stroke-miterlimit="10" x1="440.168" y1="394.166" x2="440.168" y2="406.83"/>
	
		<line fill="none" stroke="#FFFFFF" stroke-width="6" stroke-miterlimit="10" x1="432.066" y1="364.937" x2="432.066" y2="377.601"/>
	<line fill="none" stroke="#FFFFFF" stroke-width="6" stroke-miterlimit="10" x1="448.65" y1="379.252" x2="448.65" y2="391.918"/>
</g>
<circle fill="#FFFFFF" cx="385.089" cy="334.812" r="4.241"/>
<rect x="489.502" y="311.037" fill="none" stroke="#FFFFFF" stroke-width="6" stroke-miterlimit="10" width="31.768" height="19.285"/>
<rect x="538.41" y="311.037" fill="none" stroke="#FFFFFF" stroke-width="6" stroke-miterlimit="10" width="31.771" height="19.285"/>
<rect x="585.959" y="311.037" fill="none" stroke="#FFFFFF" stroke-width="6" stroke-miterlimit="10" width="31.77" height="19.285"/>
<line fill="none" stroke="#FFFFFF" stroke-width="6" stroke-linejoin="round" stroke-miterlimit="10" x1="515.879" y1="208.17" x2="572.713" y2="208.17"/>
<line fill="none" x1="285.632" y1="267.761" x2="285.632" y2="259.259"/>
</svg>
