<?xml version="1.0" encoding="utf-8"?>
<!-- Generator: Adobe Illustrator 16.0.0, SVG Export Plug-In . SVG Version: 6.00 Build 0)  -->
<!DOCTYPE svg PUBLIC "-//W3C//DTD SVG 1.1//EN" "http://www.w3.org/Graphics/SVG/1.1/DTD/svg11.dtd">
<svg version="1.1" id="Layer_1" xmlns="http://www.w3.org/2000/svg" xmlns:xlink="http://www.w3.org/1999/xlink" x="0px" y="0px"
	 width="187px" height="131px" viewBox="0 0 187 131" enable-background="new 0 0 187 131" xml:space="preserve">
<rect x="-12" y="-14" fill="#FFFFFF" stroke="#000000" stroke-miterlimit="10" width="223" height="163"/>
<g>
	<path fill="#0082C9" d="M137.686,43.963l-7.802,6.233v7.822l-15.565,5.552h-0.002l-21.708,7.749L70.892,63.57l0,0l-15.568-5.552
		v-7.822l-7.797-6.233l-7.928,6.361v30.955l2.581,2.637h27.195l0,0h2.402l0,0H91.31h2.59h19.536l0,0h2.399l0,0h27.197l2.581-2.637
		V50.136L137.686,43.963z M57.852,81.249l-2.528-2.528V61.767l12.359,19.481L57.852,81.249L57.852,81.249z M69.11,78.521
		L58.65,62.033l10.46,3.731V78.521z M71.775,81.249v-13.05l8.274,13.05H71.775z M80.103,76.355l-5.465-8.617l5.465,1.947V76.355z
		 M83.205,81.249l-0.438-0.009v-8.608l5.467,8.617H83.205z M91.234,81.005l-6.02-9.491l6.02,2.146V81.005z M93.976,73.66
		l6.021-2.146l-6.021,9.492V73.66z M102.443,81.24l-0.438,0.009h-5.028l5.467-8.617V81.24L102.443,81.24z M105.107,69.686
		l5.467-1.942l-5.467,8.612V69.686z M113.436,81.249h-8.271l8.271-13.05V81.249L113.436,81.249z M116.102,65.764l10.459-3.731
		l-10.459,16.488V65.764z M129.884,78.72l-2.524,2.528h-9.832l12.356-19.481V78.72z"/>
	<path fill="none" stroke="#00974A" stroke-width="2" stroke-miterlimit="10" d="M128.025,3.211"/>
</g>
<g>
	<g>
		<polygon fill="#00964A" points="16.113,13.754 16.113,30.903 1.947,13.263 1.947,46.004 1.069,47.863 7.683,45.619 6.224,44.378 
			6.224,26.094 20.328,43.574 20.439,12.871 21.449,11.017 14.908,12.492 		"/>
	</g>
	<g>
		<path fill="#00964A" d="M178.883,12.525l1.544,2.315l-0.043,16.447L166.188,8.011v30.35l-0.926,1.337l6.301,1.343l-1.068-1.898
			V22.891c2.058,3.581,14.083,23.087,14.083,23.087l0.063-30.403l1.68-1.513L178.883,12.525z"/>
	</g>
	<g>
		<polygon fill="#00964A" points="32.807,8.62 25.956,10.105 27.335,11.683 27.335,39.327 26.553,41.201 32.807,39.625 
			31.819,38.363 31.795,10.673 		"/>
	</g>
	<g>
		<polygon fill="#00964A" points="51.361,36.843 51.361,31.068 49.572,32.051 44.116,33.335 42.631,31.965 42.631,12.587 
			44.46,10.552 49.736,9.812 51.361,10.791 51.361,4.669 50.037,5.551 41.629,7.029 41.598,7.039 41.577,7.064 38.336,10.71 
			38.309,10.743 38.309,10.785 38.309,33.698 38.309,33.748 38.346,33.782 42.602,37.701 42.644,37.738 42.7,37.729 49.953,36.127 
					"/>
	</g>
	<g>
		<polygon fill="#00964A" points="83.975,33.094 91.158,32.931 92.585,33.956 92.585,27.656 90.78,28.676 85.414,28.766 
			83.923,27.404 83.923,20.094 91.475,19.958 89.431,17.644 91.236,15.376 83.923,15.563 83.923,8.729 85.383,7.029 91.042,6.994 
			92.651,7.991 92.651,1.827 91.344,2.569 83.185,2.738 79.6,6.879 79.6,29.168 79.638,29.202 		"/>
	</g>
	<g>
		<polygon fill="#00964A" points="57.292,35.358 63.636,34.634 62.394,33.177 62.394,24.833 63.881,22.268 70.602,32.429 
			70.432,34.004 76.022,33.718 66.228,18.21 74.546,3.051 67.446,3.529 68.852,4.929 62.394,16.301 62.394,5.424 63.186,3.752 
			57.408,4.29 58.254,5.796 58.254,33.681 		"/>
	</g>
	<g>
		<path fill="#00964A" d="M98.852,10.909c0.737,0,1.982-0.241,2.561-0.627V31.69l-0.987,1.533l6.242,0.091l-0.933-1.574V19.102h2.48
			l0.562,1.19c2.093,4.425,3.892,9.074,5.955,11.579c1.896,2.304,3.588,2.53,4.342,2.53c0.353,0,0.91-0.198,0.91-0.198l-1.353-2.022
			l0.935-1.818l-0.396-0.059c-1.575-0.248-3.153-3.931-3.171-3.968l-3.357-7.124l0.985-0.018l3.562-4.085V6.773l-3.898-4.093
			l-8.305-0.125l-3.496,3.96c-2.235,2.063-3.838,2.587-4.592,2.561c-0.645-0.024-1.396-0.428-1.396-0.428s0.206,0.491,0.388,0.724
			C96.421,10.064,97.289,10.909,98.852,10.909z M105.732,8.697l1.459-1.887l4.166,0.043l1.511,1.861v4.503l-1.455,1.694
			l-5.731-0.025L105.732,8.697z"/>
	</g>
	<g>
		<path fill="#00964A" d="M82.313,96.048c-0.257,1.132,0.99,3.228,1.82,3.396c0.153,0.031,0.288,0,0.404-0.094
			c0.142-0.106,0.24-0.312,0.29-0.601c0.096-0.562,0.293-1.093,0.487-1.615c0.268-0.729,0.549-1.479,0.565-2.338
			c0.017-0.728-0.592-1.795-1.213-1.823C83.473,92.932,82.591,94.833,82.313,96.048z"/>
	</g>
	<g>
		<path fill="#00964A" d="M134.414,105.314c-0.081-0.016-0.162,0-0.236,0.186c-1.354,3.55-3.406,6.236-6.65,8.71l-0.295,0.226
			l0.111-0.355c0.188-0.604,0.373-1.262,0.582-2.07l0.02-0.041c0.539-0.955,0.996-2.021,1.363-2.879
			c0.355-0.836,0.737-1.678,1.11-2.494c0.806-1.759,1.636-3.588,2.248-5.502c0.042-0.092,0.065-0.173,0.085-0.248
			c0.091-0.295-0.008-0.765-0.266-1.271c-0.33-0.652-0.838-1.201-1.152-1.257c-0.098-0.014-0.167,0.012-0.219,0.179
			c-0.322,1.054-0.723,2.142-1.254,3.416l-0.12,0.298l-0.109-0.27c-0.321-0.795-0.84-1.252-1.534-1.371
			c-1.15-0.188-2.619,0.556-3.521,1.412c-1.47,1.397-2.947,3.611-3.64,5.725c-0.73,2.236-0.73,2.236-2.369,4.277
			c-1.194,1.484-2.506,2.271-2.924,1.666c-0.342-0.49,0.815-3.506,1.129-4.069l0.125-0.229c0.918-1.653,3.328-5.763,2.418-7.209
			c-0.438-0.697-0.896-1.063-1.438-1.158c-0.438-0.067-0.946,0.037-1.601,0.342c-0.373,0.169-0.828,0.462-1.219,0.771l-0.213,0.168
			c0,0,0.284-1.078,0.396-1.385c0.077-0.218-0.013-0.672-0.229-1.129c-0.339-0.705-0.832-1.169-1.082-0.929
			c-1.421,1.353-1.898,2.812-2.656,4.938l-0.228,0.638c-0.161,0.445-0.306,0.879-0.455,1.316c-0.438,1.283-0.888,2.613-1.647,4.118
			c-0.877,1.255-2.188,4.028-3.629,4.122c-0.043,0.01-0.1,0.027-0.153,0.016c-0.31-0.054-0.349-0.576-0.136-1.759
			c0.488-2.692,2.146-7.839,4.117-10.972c0.064-0.104,0.035-0.266,0-0.374c-0.191-0.595-1.021-1.394-1.531-1.479
			c-0.043-0.002-0.084-0.008-0.115-0.002c-0.553,0.079-1.074,0.688-1.6,1.862c-0.767,1.399-1.965,5.262-2.104,5.706
			c-0.232,0.751-1.139,2.513-2.486,4.109c-1.461,1.729-3.01,2.611-4.601,2.637c-0.103-0.006-0.217-0.026-0.304-0.205
			c-0.254-0.536,0.132-2.143,0.625-3.503c0.152-0.413,0.293-0.83,0.438-1.244c0.359-1.054,0.734-2.142,1.235-3.187
			c0.463-0.965,0.866-1.98,1.2-2.843l0.039-0.102l0.096,0.002c1.084,0.011,3.625,0.044,4.102-1.409
			c0.135-0.4,0.076-0.925-0.156-1.396c-0.273-0.543-0.723-0.905-1.158-0.922c-0.326-0.014-0.738,0.143-1.139,0.287l-0.479,0.176
			l0.105-0.263c0.81-1.957,1.879-4.161,3.689-5.772c0.152-0.139,0.148-0.412,0.116-0.618c-0.132-0.823-0.879-1.896-1.382-1.979
			c-0.096-0.019-0.172,0.006-0.235,0.062c-2.39,2.126-3.556,5.205-4.729,8.713L98.734,99.6h-0.102
			c-0.324,0.002-0.654,0.006-0.98,0.002c-0.182,0-0.41-0.021-0.648-0.039c-0.676-0.062-1.515-0.139-1.957,0.152
			c-0.238,0.156-0.339,0.411-0.379,0.604c-0.038,0.177-0.037,0.373-0.016,0.558l-0.006,0.013c-0.034,0.064-0.025,0.105,0.009,0.16
			H94.65l0.035,0.049c0.008,0.008,0.016,0.01,0.021,0.019l0.007,0.006c0.038,0.131,0.094,0.256,0.162,0.343
			c0.073,0.094,0.307,0.381,0.333,0.415c0.313,0.325,0.56,0.506,1.002,0.583l0.035,0.004c0.372,0.062,0.792,0.102,1.321,0.125
			l0.152,0.008l-0.13,0.377c-0.577,1.646-1.179,3.351-1.872,4.948c-1.297,2.976-4.41,6.327-5.841,6.298l-0.035-0.004
			c-0.056-0.009-0.135-0.046-0.176-0.158c-0.207-0.564,0.819-2.971,1.131-3.541l0.119-0.211c0.917-1.662,3.715-6.724,2.803-8.168
			c-0.44-0.699-0.896-1.067-1.442-1.16c-0.44-0.07-0.947,0.035-1.598,0.336c-0.375,0.179-0.832,0.468-1.217,0.774l-0.399,0.357
			c0,0,0.468-1.267,0.579-1.569c0.081-0.221-0.013-0.674-0.232-1.133c-0.336-0.703-0.832-1.165-1.082-0.93
			c-1.421,1.354-4.603,9.918-5.363,11.42c-0.878,1.255-2.188,3.303-3.629,3.398c-0.042,0.012-0.097,0.023-0.156,0.018
			c-0.308-0.053-0.346-0.768-0.133-1.944c0.489-2.7,2.336-7.151,4.305-10.284c0.065-0.104,0.039-0.259,0.001-0.374
			c-0.194-0.594-1.024-1.391-1.535-1.474c-0.04-0.01-0.079-0.014-0.111-0.006c-0.554,0.082-1.078,0.693-1.601,1.865
			c-0.769,1.396-2.2,5.474-2.292,5.924c-1.333,3.145-3.349,6.724-5.042,6.438l-0.033-0.009c-0.048-0.006-0.113-0.037-0.154-0.138
			c-0.334-0.735,1.445-5.252,1.466-5.301c0.344-0.896,0.843-1.927,1.37-3.014c0.58-1.184,1.176-2.412,1.58-3.51
			c0.047-0.086,0.077-0.176,0.111-0.312l0.009-0.072c0.071-0.672-0.741-2.336-1.292-2.424c-0.088-0.018-0.151,0.012-0.215,0.102
			c-0.45,0.615-0.874,1.328-1.288,2.162l-0.091,0.188l-0.116-0.135c-0.525-0.594-1.091-0.938-1.68-1.041
			c-1.853-0.309-3.515,1.91-4.142,2.877c-0.675,1.039-1.359,2.094-1.989,3.172c-0.202,0.29-0.382,0.604-0.542,0.952
			c-0.756,1.371-1.5,2.392-2.351,3.226c-0.159,0.149-0.309,0.328-0.457,0.498c-0.338,0.389-0.69,0.793-1.143,0.99l-0.314,0.145
			l0.172-0.325c0.261-0.481,0.488-0.97,0.663-1.413c1.659-4.186,1.613-7.335-0.141-9.626c-0.817-1.062-1.763-1.332-2.738-0.771
			l-0.121,0.069l-0.046-0.128c-0.049-0.134-0.103-0.273-0.17-0.412c-0.147-0.318-0.416-0.68-0.617-0.711
			c-0.042-0.004-0.073,0-0.104,0.02c-0.312,0.209-0.459,0.688-0.601,1.149c-0.049,0.157-0.097,0.31-0.148,0.454
			c-0.172,0.457-0.381,0.885-0.582,1.309c-0.168,0.344-0.341,0.711-0.489,1.074c-0.809,2.008-7.111,16.571-8.078,20.15
			c-0.085,0.312,0.159,1.127,0.556,1.854c0.308,0.573,0.639,0.951,0.861,0.982c0.071,0.016,0.12-0.006,0.168-0.077
			c0.504-0.729,1.11-2.698,1.595-4.282c0.138-0.447,0.265-0.865,0.38-1.207c0.345-1.058,1.545-4.678,2.43-6.695l0.116-0.26
			l0.111,0.229c0.279,0.565,0.611,1.057,0.958,1.411c0.443,0.455,0.915,0.728,1.402,0.809c1.483,0.245,2.867-1.262,3.768-2.566
			l0.104-0.153l0.094,0.136c0.058,0.075,0.115,0.141,0.161,0.161c0.219,0.121,0.435,0.2,0.645,0.235
			c1.024,0.172,1.864-0.698,2.751-1.617l0.32-0.326l0.017,0.257c0.026,0.353,0.074,0.679,0.141,0.976
			c0.258,1.179,0.809,2.621,1.972,2.812c0.279,0.048,0.583,0.02,0.905-0.084c0.633-0.2,1.746-1.179,2.979-3.312l0.267-0.461
			l-0.037,0.515c-0.037,0.521,0.114,3.211,1.641,3.464c0.266,0.044,0.566,0.011,0.892-0.112c1.289-0.454,2.391-2.676,3.272-4.177
			c0.163-0.271,0.32-0.538,0.467-0.771l0.528-1.179c0,0-0.623,3.536-0.348,4.584c0.24,0.916,0.809,1.173,1.283,1.203
			c1.114,0.056,2.296-0.938,3.14-2.596l0.504-0.985l-0.276,1.062c-0.021,0.084-0.295,0.986-0.31,1.26
			c-0.028,0.523,0.896,1.824,1.479,1.919c0.114,0.021,0.229,0.002,0.297-0.251c0.552-2.08,2.116-6.756,3.143-8.689
			c0.881-1.656,1.769-2.643,2.637-2.933c0.422-0.142,0.689-0.188,0.868-0.153c0.47,0.073,0.319,0.663,0.208,1.103
			c-0.258,1.017-0.708,2.128-1.178,3.305c-0.937,2.325-1.901,4.726-1.293,6.271c0.251,0.643,0.7,1.021,1.333,1.125
			c1.146,0.188,2.62-0.561,3.484-1.397c1.766-1.721,2.105-2.471,2.106-2.479l0.298-0.688c0,0-0.684,1.923,0.152,3.497
			c1.069,2.019,4.133,0.038,5.294-1.062c1.209-1.144,2.164-2.57,2.625-3.33l0.531-1.166c0,0-0.791,3.27-0.606,4.688
			c0.192,1.501,1.056,1.816,1.536,1.816c1.26,0.013,3.453-3.146,3.453-3.146l-0.172,0.585c-0.069,0.103-0.094,0.249-0.105,0.519
			c-0.029,0.582,0.939,2.229,1.467,2.32c0.053,0.002,0.135,0.018,0.195-0.212c0.555-2.085,2.114-7.673,3.146-9.604
			c0.879-1.656,1.401-2.187,2.271-2.474c0.42-0.138,0.83-0.146,1.011-0.119c0.467,0.082,0.485,0.637,0.377,1.064
			c-0.261,1.021-0.654,1.665-1.127,2.848c-0.938,2.317-1.899,5.629-1.293,7.187c0.25,0.634,0.631,1.021,1.145,1.085
			c2.271,0.295,5.479-4.245,5.479-4.245l0.059,0.161c0.213,0.535,0.478,0.986,0.82,1.384c0.625,0.726,1.396,0.979,1.933,1.07
			c0.489,0.085,1.007,0.059,1.454-0.062l0.195-0.056l-0.062,0.212c-0.058,0.199-0.181,0.643-0.302,1.061
			c-0.109,0.391-0.219,0.766-0.271,0.941l-0.021,0.065l-0.053,0.032c-0.312,0.188-0.633,0.379-0.951,0.571
			c-0.894,0.535-1.812,1.091-2.688,1.687c-0.688,0.469-1.965,1.457-2.871,2.809c-1.076,1.602-1.361,3.801-1.087,5.059
			c0.196,0.892,0.508,1.512,0.978,1.939c0.354,0.396,0.721,0.612,1.108,0.646c0.032,0.008,0.046,0.012,0.06,0.012
			c0.022,0.004,0.047,0.008,0.062,0c1.696-0.027,3.439-3.145,4.28-4.641l0.062-0.119c1.006-1.789,1.756-3.967,2.48-6.074
			l0.078-0.227l0.322-0.205c0.522-0.336,1.049-0.67,1.577-0.996l0.101-0.062c3.184-1.975,7.143-4.427,7.752-9.203
			C135.812,106.917,134.951,105.408,134.414,105.314z M60.891,107.57c-0.068,0.183-0.136,0.365-0.196,0.535
			c-0.737,2.061-1.855,3.566-3.31,4.506c-0.361,0.219-0.536,0.324-0.957,0.377c-0.149,0.031-0.277,0.041-0.385,0.019
			c-0.149-0.026-0.253-0.099-0.314-0.216c-0.104-0.198-0.078-0.504,0.075-0.986c0.25-0.787,0.957-1.351,1.17-1.503
			c0.017-0.218-0.088-0.659-0.369-1.255l-0.027-0.054l0.027-0.062c0.691-1.556,1.275-2.93,1.785-4.201l0.034-0.061
			c0.27-0.354,0.549-0.708,0.833-1.056c0.142-0.167,1.853-1.546,2.369-1.459c0.097,0.017,0.165,0.081,0.188,0.181
			C62.19,104.061,61.44,106.09,60.891,107.57z M71.947,107.35c-0.155,0.35-0.333,0.746-0.537,1.229
			c-0.311,0.732-2.2,4.055-2.952,4.406c-0.329,0.162-0.58,0.226-0.782,0.189c-0.38-0.062-0.572-0.439-0.79-1.105
			c-0.301-1.047,0.055-2.641,1.06-4.743c0.245-0.521,2.538-5.183,4.403-4.472c0.524,0.287,0.738,0.812,0.611,1.473
			C72.702,105.661,72.419,106.295,71.947,107.35z M123.395,119.932c-0.607,1.81-1.295,3.691-2.31,5.201l-0.047,0.075
			c-0.588,0.869-1.569,2.328-2.631,2.472l-0.062,0.008l-0.037-0.051c-0.414-0.521-0.531-1.172-0.356-1.943
			c0.498-2.187,3.274-4.742,4.577-5.562c0.146-0.09,0.291-0.179,0.433-0.271l0.58-0.368L123.395,119.932z M124.848,111.107
			c-0.763,0.727-1.394,1.035-1.931,0.942c-0.112-0.017-0.226-0.052-0.329-0.104c-0.536-0.295-0.301-1.456-0.078-2.305
			c0.016-0.048,0.022-0.091,0.028-0.108c0.08-0.364,0.327-1.323,0.878-2.48c1.257-2.647,3.593-4.735,4.886-4.301
			c0.179,0.054,0.294,0.181,0.357,0.368c0.268,0.785-0.541,2.544-1.13,3.826c-0.084,0.188-0.163,0.355-0.23,0.512
			C126.618,108.991,125.818,110.188,124.848,111.107z"/>
	</g>
	<g>
		<path fill="#00964A" d="M107.884,95.848c-0.26,1.137,0.989,3.228,1.817,3.396c0.154,0.031,0.291,0,0.402-0.094
			c0.146-0.11,0.244-0.312,0.291-0.604c0.098-0.558,0.297-1.097,0.485-1.611c0.271-0.727,0.554-1.48,0.565-2.332
			c0.018-0.73-0.588-1.809-1.215-1.828C109.042,92.732,108.16,94.635,107.884,95.848z"/>
	</g>
	<g>
		<path fill="#00964A" d="M86.221,44.776l1.927-0.021c0.237,0.217,0.776,0.711,0.989,0.904c0.392,0.354,0.984,0.89,1.908,0.919
			c0.026,0,0.051,0.001,0.077,0.001c0.322,0,0.664-0.062,1.015-0.186l0.508-0.179l-0.321-0.435c-1.606-2.167-2.46-3.543-2.552-3.693
			l-0.38-0.531l-4.685,0.001l-2.482,2.677l-0.175,5.596l2.813,2.751l3.237,0.024l0.779,0.766l-0.105,3.37l-0.849,0.941l-1.716,0.021
			h-0.015c-0.202-0.199-0.715-0.701-0.939-0.895c-0.155-0.132-0.98-0.795-2.079-0.83c-0.282-0.008-0.556,0.027-0.817,0.105
			l-0.524,0.157l0.31,0.451c1.254,1.826,2.652,4.006,2.668,4.031l0.118,0.179l4.504-0.001l2.483-2.68l0.19-6.078l-2.813-2.752
			l-3.233-0.022l-0.781-0.768l0.09-2.884L86.221,44.776z"/>
	</g>
	<g>
		<polygon fill="#00964A" points="97.688,44.858 97.688,59.243 96.823,60.902 101.736,60.902 100.9,59.371 100.9,44.918 
			103.047,44.918 104.066,45.717 104.066,40.684 102.99,41.541 95.568,41.541 94.336,40.824 94.336,45.528 95.464,44.858 		"/>
	</g>
	<g>
		<path fill="#00964A" d="M136.766,7.715c-1.314-2.565-1.324-3.014-1.324-3.014l-8.752-0.9l-3.705,4.493l-0.023,8.473l4.693,4.278
			l4.718,0.475l2.177,1.872l0.036,5.035l-1.601,1.807l-3.985-0.275l0,0c-0.03-0.047-0.834-1.248-1.431-1.823
			c-0.729-0.704-1.543-1.256-3.354-1.335c-0.134-0.004-0.264-0.004-0.39,0.003c-0.316,0.016-0.62,0.063-0.904,0.145l-0.667,0.184
			l0.174,0.218c0.016,0.019,1.514,1.894,2.664,3.573c1.062,1.547,1.621,3.033,1.626,3.049l0.041,0.11l8.604,0.657l3.461-4.411
			l0.002-9.041l-4.131-3.769l-5.773-0.675l-1.914-1.768l0.021-5.188l1.47-1.732l4.453,0.447c0,0,1.722,2.458,3.44,2.982
			c0.215,0.065,0.463,0.098,0.735,0.098c0.89,0,1.789-0.34,1.826-0.354l0.204-0.079C139.159,11.246,137.667,9.474,136.766,7.715z"/>
	</g>
</g>
<g>
	<path fill="#00964A" d="M147.295,6.301l-3.294,4.194v22.407l4.022,4.006l8.769,1.29l3.437-3.977V13.009l-3.957-5.488L147.295,6.301
		z M155.836,32.72l-1.074,1.192l-5.145-0.819l-1.499-1.58V12.35l1.438-1.763l4.793,0.678l1.516,2.026L155.836,32.72z"/>
</g>
</svg>
