<?xml version="1.0" encoding="utf-8"?>
<!-- Generator: Adobe Illustrator 16.0.0, SVG Export Plug-In . SVG Version: 6.00 Build 0)  -->
<!DOCTYPE svg PUBLIC "-//W3C//DTD SVG 1.1//EN" "http://www.w3.org/Graphics/SVG/1.1/DTD/svg11.dtd">
<svg version="1.1" id="Layer_1" xmlns="http://www.w3.org/2000/svg" xmlns:xlink="http://www.w3.org/1999/xlink" x="0px" y="0px"
	 width="413.018px" height="364.992px" viewBox="0 0 413.018 364.992" enable-background="new 0 0 413.018 364.992"
	 xml:space="preserve">
<g>
	<path fill="#FFFFFF" d="M296.112,144.924c-0.232-0.028-12.781-1.567-31.371-2.995v-12.886c2.816,0.158,4.439,0.261,4.512,0.266
		l13.505,0.864l-51.073-23.379l-4.41-4.846h-5.743l-2.523-5.837h-10.5V79.52c3.479,0.479,7.155,0.721,11.165,0.721
		c6.301,0,12.635-0.58,18.76-1.142c5.991-0.548,12.188-1.115,18.215-1.115c4.774,0,9.024,0.353,12.992,1.079l3.539,0.648v-45.19
		l-2.459-0.45c-4.326-0.792-8.932-1.178-14.072-1.178c-6.299,0-12.633,0.58-18.762,1.142c-5.99,0.548-12.188,1.115-18.213,1.115
		c-4.056,0-7.719-0.271-11.165-0.793v-2.549c0-1.657-1.343-3-3-3c-1.657,0-3,1.343-3,3v64.304H190.83l-3.306,5.837h-5.583
		l-4.969,4.638l-49.93,23.604l13.158-0.882c0.058-0.004,1.163-0.077,3.097-0.192v12.564c-16.828,1.054-28.081,2.101-28.306,2.122
		c-1.65,0.155-2.861,1.619-2.706,3.271c0.155,1.65,1.617,2.858,3.268,2.705c0.222-0.021,11.235-1.046,27.743-2.084v13.264
		c-5.953,0.786-9.368,1.693-9.368,2.661c0,1.764,11.307,3.331,28.794,4.319c2.866,9.453,18.874,63.176,20.205,133.304
		c0,0-0.084,2.42,2.249,4.67c1.444,1.393,4.25,3.417,4.25,3.417c-1.269-66.836-16.232-126.975-20.349-141.073
		c8.035,0.361,17.083,0.608,26.751,0.713c0,8.901,0,106.496,0,140.711c0,11.856,32.693,26.504,32.693,26.504
		s0.668-13.978,0.785-15.707c2.598-38.677,15.153-136.818,17.166-152.36c19.398-0.971,32.178-2.623,32.178-4.499
		c0-1.192-5.172-2.294-13.914-3.188v-12.482c18.172,1.405,30.404,2.904,30.632,2.933c0.125,0.016,0.25,0.023,0.374,0.023
		c1.492,0,2.785-1.112,2.973-2.631C298.924,146.626,297.756,145.128,296.112,144.924z M209.142,40.521
		c3.291,0.422,6.768,0.628,10.531,0.628c6.299,0,12.635-0.58,18.76-1.141c5.992-0.549,12.188-1.116,18.213-1.116
		c3.807,0,7.273,0.224,10.533,0.683v33.036c-3.291-0.422-6.768-0.628-10.533-0.628c-6.299,0-12.635,0.58-18.761,1.141
		c-5.991,0.549-12.187,1.116-18.212,1.116c-3.803,0-7.273-0.224-10.531-0.683V40.521L209.142,40.521z M149.299,128.774
		c11.718-0.632,33.074-1.6,53.994-1.6c21.26,0,42.998,0.917,55.448,1.549v12.765c-15.188-1.064-33.553-1.964-52.257-1.964
		c-20.43,0-40.841,0.852-57.186,1.795L149.299,128.774L149.299,128.774z M230.293,216.723c-9.956,44.27-12,53.563-17.286,53.563
		c-4.666,0-5.697-9.611-8.712-52.336c-1.589-22.535-2.087-44.64-2.173-48.935c1.381,0.006,2.77,0.01,4.171,0.01
		c12.158,0,23.608-0.226,33.667-0.622C238.577,176.164,234.879,196.33,230.293,216.723z M258.742,159.891
		c-13.185-1.038-31.798-1.686-52.448-1.686c-23.152,0-43.749,0.814-56.994,2.079v-12.956c16.304-0.945,36.738-1.804,57.186-1.804
		c18.727,0,37.111,0.909,52.257,1.978L258.742,159.891L258.742,159.891z"/>
	<g>
		<path fill="#FFFFFF" d="M224.493,65.243c2.75,0,5.697-0.126,9.553-0.408c-0.023-1.167-0.047-2.334-0.07-3.502
			c-1.906,0.139-3.502,0.233-5.021,0.299l-0.077,0.003l-0.002-0.077c-0.088-4.36-0.177-8.721-0.268-13.082
			c-1.463,0.059-2.812,0.088-4.121,0.088c-2.541,0-4.861-0.11-7.086-0.336l0.072,3.515c1.688,0.169,3.407,0.271,5.252,0.31
			l0.07,0.002l0.197,9.666l-0.078-0.001c-1.852-0.036-3.566-0.132-5.247-0.294l0.072,3.514c2.125,0.204,4.334,0.303,6.75,0.303
			C224.492,65.243,224.493,65.243,224.493,65.243z"/>
		<path fill="#FFFFFF" d="M260.168,64.016l-0.076-3.735c-2.202-0.221-4.495-0.329-7.01-0.329c-3.586,0-7.121,0.228-9.8,0.425
			l-0.079,0.006l-0.002-0.079c-0.015-0.706-0.029-1.413-0.043-2.119v-0.028l0.019-0.022c0.076-0.088,0.149-0.175,0.225-0.261
			l0.021-0.024l0.031-0.002c3.892-0.285,6.858-0.412,9.625-0.412c1.563,0,3.021,0.041,4.45,0.125c0.809-0.833,1.636-1.67,2.46-2.488
			l-0.097-4.704c-0.943-1.079-1.929-2.18-2.926-3.273c-1.236-0.062-2.542-0.094-3.882-0.094c-4.356,0-8.603,0.317-13.301,0.701
			l-1.083,1.27c-0.498,0.584-0.996,1.168-1.495,1.751c0.015,0.686,0.028,1.372,0.042,2.059l1.488-0.122
			c1.441-0.118,2.93-0.24,4.396-0.349c-0.004-0.236-0.009-0.472-0.015-0.708v-0.028l0.02-0.022c0.109-0.129,0.221-0.258,0.332-0.387
			l0.021-0.024l0.033-0.006c3.858-0.282,6.809-0.407,9.562-0.407c0.175,0,0.351,0,0.522,0.001h0.031l0.022,0.023
			c0.078,0.083,0.157,0.165,0.235,0.248l0.135,0.141l0.001,0.029c0.015,0.74,0.028,1.479,0.045,2.22v0.03l-0.267,0.289h-0.033
			c-4.6-0.042-9.077,0.295-14.063,0.702l-0.769,0.9c-0.564,0.664-1.131,1.328-1.696,1.991c0.048,2.377,0.097,4.754,0.146,7.132
			l0.004,0.138l1.379-0.113c4.688-0.385,9.535-0.782,14.306-0.782C255.623,63.68,257.942,63.79,260.168,64.016z"/>
	</g>
</g>
</svg>
