<?xml version="1.0" encoding="utf-8"?>
<!-- Generator: Adobe Illustrator 16.0.0, SVG Export Plug-In . SVG Version: 6.00 Build 0)  -->
<!DOCTYPE svg PUBLIC "-//W3C//DTD SVG 1.1//EN" "http://www.w3.org/Graphics/SVG/1.1/DTD/svg11.dtd">
<svg version="1.1" id="Layer_1" xmlns="http://www.w3.org/2000/svg" xmlns:xlink="http://www.w3.org/1999/xlink" x="0px" y="0px"
	 width="413.018px" height="364.992px" viewBox="0 0 413.018 364.992" enable-background="new 0 0 413.018 364.992"
	 xml:space="preserve">
<rect x="6.28" y="399" fill="#D8D9DA" width="413.018" height="364.992"/>
<g>
	<path fill="#FFFFFF" d="M120.661,149.906l0.113-0.805c0.043-0.305,0.085-0.607,0.128-0.911c-3.476,0.645-6.957,1.315-10.392,2.027
		l-1.596,0.329l0.261-1.606c3.044-18.75,6.091-37.47,9.144-56.163c-1.248,0.225-2.5,0.442-3.74,0.675l-0.773,0.145l-0.127,0.776
		c-3.104,19.011-6.203,38.051-9.299,57.12l-0.26,1.607l1.595-0.329c4.672-0.968,9.433-1.883,14.146-2.722L120.661,149.906z"/>
	<path fill="#FFFFFF" d="M144.809,114.377c3.424-8.986,6.849-17.93,10.277-26.845c-1.101,0.116-2.206,0.224-3.301,0.346
		l-0.676,0.077l-0.246,0.635c-2.671,6.943-5.339,13.931-8.007,20.918C143.507,111.134,144.158,112.747,144.809,114.377z"/>
	<path fill="#FFFFFF" d="M141.992,144.724l-0.855,0.122l-0.336-0.795c-3.726-8.839-7.447-17.637-11.164-26.393
		c-0.488,3.468-0.977,6.941-1.466,10.411c2.61,6.161,5.221,12.333,7.835,18.535l0.335,0.795l0.855-0.122
		c1.897-0.27,3.795-0.528,5.696-0.777l0.656-0.085l0.242-0.614c0.184-0.466,0.369-0.932,0.553-1.397
		C143.56,144.51,142.775,144.612,141.992,144.724z"/>
	<path fill="#FFFFFF" d="M165.106,141.975l-1.08,0.104l-3.66-28.479c-1.285,3.215-2.578,6.46-3.875,9.716l2.739,21.317l1.08-0.104
		c4.778-0.457,9.616-0.85,14.378-1.168l1.219-0.082l-0.186-1.207c-0.05-0.325-0.099-0.649-0.149-0.974
		C172.085,141.357,168.583,141.643,165.106,141.975z"/>
	<path fill="#FFFFFF" d="M218.978,142.324v-2.611c-9.283-0.1-18.648,0.04-27.891,0.448l-1.17,0.052V85.055
		c-1.242,0.046-2.486,0.081-3.724,0.136l-1.072,0.047v57.527l1.17-0.051c10.456-0.461,21.075-0.599,31.544-0.411L218.978,142.324z"
		/>
	<path fill="#FFFFFF" d="M206.6,96.6v2.527c3.75-0.016,7.504-0.004,11.235,0.063l1.143,0.021V96.6
		C214.853,96.556,210.715,96.546,206.6,96.6z"/>
	<path fill="#FFFFFF" d="M206.6,118.009v2.524c3.451-0.013,6.902-0.005,10.354,0.051l1.14,0.019v-2.605
		C214.263,117.963,210.431,117.958,206.6,118.009z"/>
	<path fill="#FFFFFF" d="M263.714,145.211l1.242,0.136v-3.048c-9.258-0.943-18.629-1.652-27.92-2.084l-1.069-0.049V85.442
		c-1.207-0.064-2.417-0.141-3.622-0.197l-1.173-0.055v57.528l1.068,0.049C242.719,143.255,253.31,144.077,263.714,145.211z"/>
	<path fill="#FFFFFF" d="M252.635,119.475v2.96c3.401,0.296,6.812,0.613,10.201,0.977l1.24,0.134v-3.042
		C260.257,120.123,256.429,119.77,252.635,119.475z"/>
	<path fill="#FFFFFF" d="M252.635,98.066v2.962c3.708,0.322,7.415,0.67,11.079,1.07l1.242,0.136v-3.048
		C260.862,98.77,256.742,98.385,252.635,98.066z"/>
	<path fill="#FFFFFF" d="M306.013,105.059v3.467c1.887,0.369,3.768,0.745,5.629,1.131l1.35,0.279v-3.527
		C310.672,105.946,308.343,105.491,306.013,105.059z"/>
	<path fill="#FFFFFF" d="M290.429,145.532l-0.953-0.146v-43.111c-3.574-0.541-7.227-1.054-10.875-1.526l-0.977-0.127V89.397
		c-1.177-0.16-2.355-0.338-3.531-0.491l-1.265-0.163v14.431l0.978,0.127c3.647,0.472,7.301,0.985,10.875,1.526v43.111l0.95,0.146
		c4.778,0.734,9.577,1.54,14.263,2.396l1.323,0.242v-3.404C297.644,146.691,294.037,146.086,290.429,145.532z"/>
	<path fill="#FFFFFF" d="M179.782,218.083V163.22c-1.249,0.071-2.501,0.135-3.746,0.214l-1.049,0.068v57.134
		c0.004,10.595-0.716,20.466-7.399,25.686C178.752,242.492,179.787,230.809,179.782,218.083z"/>
	<path fill="#FFFFFF" d="M162.182,274.017c-2.981,0.294-5.901,0.443-8.686,0.443c-11.875,0-21.088-2.599-27.388-7.726
		c-10.622-8.524-11.489-21.53-11.491-36.405v-59.18c-1.297,0.243-2.599,0.481-3.89,0.733l-0.906,0.178v60.821
		c0.002,14.875,0.87,27.881,11.492,36.404c6.298,5.127,15.513,7.728,27.387,7.728c2.784-0.001,5.704-0.149,8.686-0.445
		c8.494-0.886,19.459-3.153,28.56-8.672C177.974,271.596,169.227,273.281,162.182,274.017z"/>
	<path fill="#FFFFFF" d="M272.528,239.682c0.002-6.972-10.414-10.755-16.012-12.785c-16.666-6.135-29.758-10.956-29.752-32.821
		c-0.004-10.113,3.258-18.797,9.432-25.108c1.542-1.577,3.262-2.96,5.113-4.163c-3.748,1.605-7.107,3.853-9.908,6.716
		c-6.174,6.311-9.437,14.994-9.432,25.107c-0.005,21.865,13.088,26.687,29.752,32.822c5.598,2.03,16.014,5.812,16.012,12.784
		c0,2.382-0.771,4.079-1.905,5.292C268.938,246.789,272.528,244.83,272.528,239.682z"/>
	<path fill="#FFFFFF" d="M267.267,273.949c-2.011,0-4.084-0.098-6.164-0.291c-13.314-1.266-26.855-6.412-38.131-14.496l-0.803-0.576
		l0.471-0.869c3.366-6.231,6.731-12.424,10.096-18.59c-0.406-0.357-0.813-0.717-1.223-1.094l-1.055-0.967l-0.688,1.256
		c-3.974,7.27-7.951,14.586-11.927,21.948l-0.47,0.869l0.802,0.575c11.275,8.082,24.815,13.23,38.13,14.496
		c2.082,0.193,4.154,0.291,6.166,0.291c9.373,0,17.567-2.14,23.827-6.153C280.856,272.707,274.403,273.949,267.267,273.949z"/>
	<path fill="#FFFFFF" d="M268.582,185.419c-0.449-0.051-0.912-0.076-1.379-0.076c-2.534,0-5.903,0.83-7.804,2.906
		c1.041-0.242,2.08-0.354,3.008-0.354c0.468,0,0.931,0.025,1.38,0.076c6.112,0.666,12.394,3.895,17.685,9.092l1.053,1.033
		l0.713-1.291c0.623-1.127,1.244-2.235,1.867-3.359C280.065,188.886,274.256,186.037,268.582,185.419z"/>
	<path fill="#FFFFFF" d="M111.65,147.693c3.914-0.797,7.876-1.556,11.812-2.264c1.492-10.608,2.985-21.213,4.479-31.809l0.116-0.82
		l1.683-0.269l0.487,0.783c4.096,9.638,8.197,19.327,12.304,29.067c1.404-0.197,2.807-0.388,4.212-0.573
		c4.363-11.042,8.746-22.062,13.031-32.769l0.255-0.638l1.904-0.197l4.04,31.435c4.039-0.377,8.113-0.708,12.144-0.989
		c-2.681-17.491-5.361-34.961-8.04-52.41c-4.179,0.358-8.399,0.773-12.57,1.236c-3.879,10.082-7.754,20.209-11.625,30.381
		l-1.023,2.687l-1.066-2.669c-3.621-9.061-7.238-18.083-10.852-27.067c-4.12,0.663-8.277,1.384-12.38,2.147
		C117.587,111.176,114.617,129.421,111.65,147.693z"/>
	<path fill="#FFFFFF" d="M192.159,137.87c9.745-0.407,19.597-0.535,29.371-0.381v-9.93c-5.338-0.085-10.7-0.085-16.034-0.002
		l-1.139,0.018V115.8l1.104-0.018c5.062-0.078,10.125-0.083,15.185-0.012v-9.927c-5.049-0.074-10.102-0.069-15.149,0.011
		l-1.139,0.018v-11.48l1.104-0.018c5.345-0.083,10.716-0.084,16.069,0.001v-9.927c-9.774-0.154-19.627-0.026-29.371,0.383V137.87z"
		/>
	<path fill="#FFFFFF" d="M238.209,138.026c9.758,0.474,19.604,1.236,29.3,2.27v-9.918c-5.322-0.568-10.726-1.06-16.08-1.463
		l-1.037-0.078v-11.781l1.207,0.091c4.973,0.373,10.021,0.827,15.03,1.352v-9.917c-5.062-0.532-10.171-0.993-15.2-1.37l-1.037-0.078
		V95.648l1.207,0.091c5.295,0.396,10.643,0.883,15.91,1.444v-9.916c-9.695-1.037-19.541-1.804-29.3-2.28V138.026z"/>
	<path fill="#FFFFFF" d="M279.867,98.652c3.663,0.481,7.325,1.002,10.899,1.551l0.951,0.145v43.114
		c4.035,0.627,8.079,1.306,12.053,2.021v-43.115l1.322,0.242c3.486,0.636,6.995,1.315,10.451,2.021v-9.882
		c-11.768-2.415-23.759-4.433-35.677-6.006V98.652L279.867,98.652z"/>
	<path fill="#FFFFFF" d="M182.025,218.083c0.004,11.85,0.012,29.756-19.854,31.635c-1.077,0.117-2.134,0.178-3.129,0.178
		c-0.001,0-0.001,0-0.002,0c-16.868-0.001-16.875-16.846-16.879-27.99v-54.795c-8.446,1.198-16.947,2.625-25.301,4.244v58.975
		c0.002,14.287,0.806,26.754,10.658,34.662c5.895,4.797,14.632,7.227,25.978,7.227c2.71,0,5.558-0.145,8.459-0.432
		c10.665-1.113,25.356-4.428,34.752-13.894c10.074-10.031,10.894-22.698,10.894-37.017v-58.765
		c-8.499,0.099-17.092,0.415-25.576,0.94V218.083z"/>
	<path fill="#FFFFFF" d="M275.757,207.403c-2.354-0.999-4.703-1.979-7.055-2.94l-0.492-0.215
		c-4.982-2.174-12.514-5.457-12.516-12.199c0-5.875,5.789-8.947,11.508-8.947c0.551,0,1.098,0.029,1.626,0.088
		c6.196,0.676,12.521,3.754,17.942,8.711c3.268-5.902,6.533-11.775,9.793-17.615c-9.188-6.577-21.606-11.434-31.931-12.448
		c-1.407-0.143-2.812-0.213-4.178-0.213c-9.118,0-16.953,3.082-22.657,8.912c-5.756,5.883-8.796,14.023-8.793,23.54
		c-0.004,19.358,10.186,24.053,28.197,30.684c6.191,2.25,17.57,6.379,17.566,14.923c0,7.757-6.561,10.522-12.699,10.522
		c-0.645,0-1.303-0.029-1.957-0.09c-8.014-0.738-15.963-4.676-24.262-12.025c-3.589,6.57-7.179,13.176-10.77,19.82
		c10.794,7.526,23.621,12.318,36.229,13.518c2.01,0.186,4.014,0.279,5.955,0.279c9.393,0,17.521-2.197,23.512-6.354
		c6.951-4.837,10.479-13.562,10.481-25.933C301.259,224.871,293.156,214.697,275.757,207.403z"/>
</g>
</svg>
